<svg width="20" height="20" viewBox="0 0 20 20" fill="none" xmlns="http://www.w3.org/2000/svg">
<path d="M9.63591 8.6175C9.58169 8.68594 9.51614 8.73876 9.4416 8.77478C9.36691 8.81095 9.28487 8.82962 9.19775 8.82962H8.43589C8.35706 8.82962 8.29307 8.76563 8.29307 8.6868C8.29307 8.59429 8.27862 8.50585 8.2519 8.42365C8.22369 8.33709 8.18252 8.25708 8.13095 8.18629C8.08727 8.12629 8.06454 8.05714 8.06297 7.98721C8.06157 7.91729 8.0811 7.84752 8.12189 7.78611L8.58739 7.08535C8.61708 7.04042 8.65482 7.00432 8.6992 6.97768C8.74311 6.95135 8.79288 6.93518 8.8471 6.9301C8.9007 6.92518 8.95211 6.93166 8.99992 6.94909C9.04836 6.96674 9.09212 6.99511 9.12986 7.03355C9.27955 7.18614 9.40855 7.35888 9.51231 7.54695C9.61419 7.73157 9.69217 7.93143 9.74193 8.14223C9.76186 8.22661 9.76248 8.3106 9.74459 8.39162C9.7267 8.47225 9.69029 8.54812 9.63591 8.61695L9.63568 8.61726L9.63591 8.6175ZM15.2176 12.5612C15.9283 12.5873 16.5609 12.8988 17.0091 13.3812C17.4575 13.8638 17.7217 14.5174 17.6955 15.2277C17.6694 15.9384 17.3578 16.571 16.8755 17.0193C16.3929 17.4675 15.7393 17.7317 15.029 17.7056C14.3182 17.6795 13.6856 17.368 13.2374 16.8856C12.7891 16.403 12.5249 15.7493 12.5511 15.039C12.5772 14.3283 12.8887 13.6957 13.3711 13.2475C13.8537 12.7992 14.5073 12.535 15.2176 12.5612ZM16.6961 13.6724C16.322 13.2697 15.7945 13.0097 15.2025 12.9879C14.6101 12.9661 14.0649 13.1865 13.6623 13.5605C13.2596 13.9346 12.9996 14.4621 12.9778 15.0541C12.956 15.6466 13.1765 16.1918 13.5504 16.5944C13.9245 16.9971 14.452 17.2571 15.044 17.2789C15.6365 17.3006 16.1817 17.0802 16.5843 16.7063C16.987 16.3321 17.247 15.8046 17.2687 15.2126C17.2905 14.6202 17.0701 14.075 16.6961 13.6724ZM16.5929 10.9911C16.7129 11.0337 16.833 11.0826 16.9528 11.1375C17.0724 11.1923 17.1879 11.2516 17.299 11.315C17.3743 11.3579 17.4302 11.4226 17.462 11.4981C17.4938 11.5733 17.5011 11.6583 17.4795 11.7419C17.4357 11.9114 17.435 12.0907 17.4784 12.2623C17.5198 12.4265 17.602 12.5829 17.7255 12.7157C17.8496 12.8494 17.9995 12.9431 18.1596 12.9963C18.3269 13.0519 18.5061 13.0643 18.6793 13.0328C18.7641 13.0176 18.8482 13.0312 18.9207 13.0683C18.9941 13.106 19.0547 13.1662 19.0916 13.2437C19.1449 13.3556 19.1954 13.4751 19.2426 13.602C19.2875 13.7226 19.3274 13.8461 19.3619 13.9722C19.385 14.0562 19.3789 14.1412 19.3485 14.2162C19.3179 14.2916 19.2626 14.3569 19.1873 14.4013C19.0363 14.4901 18.9091 14.6163 18.8187 14.7678C18.7319 14.9133 18.6793 15.0822 18.6726 15.2636C18.6659 15.4458 18.7059 15.6184 18.7818 15.7699C18.8605 15.927 18.9782 16.062 19.1227 16.162C19.1941 16.2115 19.2442 16.2809 19.2693 16.3587C19.2944 16.4365 19.2944 16.5218 19.2657 16.6028C19.2231 16.723 19.1741 16.8431 19.1192 16.963C19.0643 17.0826 19.0051 17.198 18.9417 17.309C18.8988 17.3842 18.8341 17.4401 18.7586 17.472C18.6834 17.5037 18.5984 17.5111 18.5147 17.4894C18.3453 17.4457 18.166 17.4451 17.9945 17.4884C17.8303 17.5298 17.6739 17.612 17.541 17.7356C17.4073 17.8596 17.3135 18.0096 17.2604 18.1697C17.2048 18.3369 17.1924 18.5161 17.2238 18.6893C17.2392 18.7739 17.2256 18.8579 17.1885 18.9306C17.151 19.0039 17.0906 19.0646 17.013 19.1016C16.9011 19.155 16.7815 19.2054 16.6546 19.2528C16.534 19.2976 16.4105 19.3375 16.2844 19.372C16.2004 19.395 16.1154 19.389 16.0404 19.3585C15.9651 19.3279 15.8998 19.2726 15.8554 19.1973C15.7665 19.0464 15.6404 18.9192 15.4889 18.8288C15.3434 18.7419 15.1745 18.6894 14.993 18.6827C14.8108 18.676 14.6382 18.7159 14.4868 18.7918C14.3297 18.8706 14.1946 18.9882 14.0946 19.1326C14.0452 19.204 13.9759 19.2542 13.898 19.2794C13.8202 19.3044 13.735 19.3044 13.6539 19.2756C13.5338 19.233 13.4136 19.1841 13.2937 19.1292C13.1742 19.0743 13.0588 19.0151 12.9477 18.9517L12.947 18.9514L12.9468 18.9517C12.8723 18.9091 12.8166 18.8444 12.7847 18.7686C12.753 18.6934 12.7456 18.6084 12.7673 18.5248C12.8111 18.3553 12.8116 18.176 12.7683 18.0045C12.7269 17.8403 12.6447 17.6838 12.5212 17.551C12.3971 17.4173 12.2471 17.3236 12.087 17.2704C11.9198 17.2147 11.7406 17.2024 11.5674 17.2338C11.4827 17.2492 11.3987 17.2356 11.3261 17.1984C11.2527 17.1609 11.1921 17.1006 11.1551 17.023C11.1017 16.911 11.0512 16.7913 11.0039 16.6643C10.9591 16.5437 10.9192 16.4204 10.8848 16.2944C10.8618 16.2106 10.8677 16.1256 10.8982 16.0504C10.9287 15.9752 10.984 15.9098 11.0594 15.8654C11.2103 15.7766 11.3375 15.6503 11.428 15.4989C11.5148 15.3533 11.5674 15.1845 11.574 15.0031C11.5767 14.9317 11.5722 14.8617 11.5611 14.7938H2.9357C2.66654 14.7938 2.42206 14.6839 2.24494 14.5068C2.06782 14.3297 1.95789 14.0851 1.95789 13.816H1.95867L1.96257 7.84978C1.67349 8.02097 1.37972 8.02355 1.14103 7.92237C1.01922 7.87072 0.912726 7.7922 0.829048 7.69532C0.744354 7.59726 0.68224 7.48038 0.650128 7.35318C0.579966 7.07456 0.650518 6.74977 0.940697 6.47108L6.71084 0.927597C6.811 0.83134 6.92617 0.758756 7.04899 0.709924C7.17517 0.659686 7.30901 0.635075 7.44261 0.636012C7.57622 0.635075 7.71021 0.659686 7.83639 0.709924C7.95929 0.758756 8.07446 0.83134 8.17447 0.927597L13.9447 6.47108C14.2348 6.74977 14.3054 7.07456 14.2353 7.3531C14.2032 7.4803 14.141 7.59726 14.0563 7.69532C13.9727 7.7922 13.8661 7.87072 13.7443 7.92237C13.5032 8.02456 13.206 8.02097 12.9141 7.84462V12.2636C12.9433 12.2098 12.9674 12.154 12.9863 12.097C13.042 11.9298 13.0543 11.7506 13.0228 11.5773C13.0075 11.4926 13.0211 11.4087 13.0583 11.336C13.0958 11.2626 13.1561 11.202 13.2336 11.165C13.3458 11.1116 13.4655 11.061 13.5927 11.0138C13.7131 10.969 13.8365 10.9292 13.9623 10.8948C14.0463 10.8717 14.1313 10.8778 14.2063 10.9082C14.2816 10.9388 14.3469 10.994 14.3913 11.0694C14.4801 11.2204 14.6064 11.3476 14.7579 11.438C14.9034 11.5248 15.0723 11.5774 15.2536 11.5841C15.4358 11.5908 15.6085 11.5508 15.7599 11.4748C15.917 11.3962 16.052 11.2785 16.152 11.134C16.2016 11.0627 16.271 11.0125 16.3487 10.9874C16.4266 10.9624 16.5118 10.9624 16.5929 10.9911ZM11.3864 14.3654C11.3153 14.264 11.2264 14.1755 11.1241 14.1046C11.0527 14.0553 11.0026 13.9859 10.9774 13.908C10.9523 13.8303 10.9523 13.745 10.9811 13.6639C11.0237 13.5438 11.0727 13.4237 11.1276 13.3038C11.1824 13.1843 11.2416 13.0688 11.3049 12.9578C11.3479 12.8825 11.4127 12.8266 11.488 12.7948C11.563 12.7631 11.6476 12.7558 11.7312 12.7772L11.7319 12.7774L11.732 12.7772C11.9014 12.821 12.0808 12.8216 12.2523 12.7783C12.3395 12.7563 12.4245 12.7228 12.5049 12.6777C12.4925 12.6506 12.4856 12.6205 12.4856 12.5887V7.5139C12.4856 7.49905 12.4872 7.48452 12.49 7.47053L7.58278 2.76079C7.54418 2.72368 7.49356 2.70508 7.44269 2.70508C7.39167 2.70508 7.34112 2.72368 7.30245 2.76079L2.38792 7.47749C2.38901 7.48616 2.38956 7.49499 2.38956 7.50397L2.3855 13.816H2.38628C2.38628 13.9668 2.44816 14.1042 2.54785 14.2039C2.64755 14.3036 2.78483 14.3654 2.9357 14.3654H5.50231V10.1654C5.50231 9.96253 5.58512 9.77821 5.71857 9.64485C5.85202 9.5114 6.03625 9.42858 6.23916 9.42858H8.63263C8.83554 9.42858 9.01985 9.5114 9.15329 9.64485C9.28666 9.77829 9.36948 9.96253 9.36948 10.1654V14.3654H11.3864ZM16.7754 11.5258C16.682 11.483 16.5843 11.443 16.4826 11.406C16.3445 11.5955 16.1619 11.7506 15.9507 11.8564C15.7367 11.9637 15.4939 12.0203 15.2386 12.0109C14.9826 12.0014 14.7441 11.9272 14.5386 11.8045C14.3363 11.6838 14.1656 11.5155 14.0414 11.3157C13.9402 11.3444 13.8401 11.3771 13.7416 11.4138C13.6461 11.4494 13.5484 11.4905 13.4488 11.537C13.4851 11.7687 13.4657 12.0071 13.3914 12.2309C13.3157 12.4587 13.1838 12.6707 12.997 12.8442C12.8093 13.0186 12.5881 13.1347 12.356 13.1933C12.128 13.2509 11.8886 13.2525 11.6593 13.199C11.6074 13.2918 11.5595 13.386 11.5158 13.4812C11.473 13.5746 11.433 13.6723 11.396 13.774C11.5856 13.9123 11.7406 14.0949 11.8465 14.3061C11.9537 14.5201 12.0102 14.763 12.0009 15.0182C11.9915 15.2742 11.9172 15.5126 11.7945 15.7181C11.6737 15.9205 11.5055 16.0911 11.3057 16.2152C11.3344 16.3166 11.3672 16.4168 11.4039 16.5154C11.4394 16.6108 11.4805 16.7084 11.527 16.8078C11.7587 16.7716 11.9971 16.791 12.221 16.8654C12.4487 16.9411 12.6606 17.0729 12.8342 17.2598C13.0086 17.4475 13.1248 17.6686 13.1834 17.9007C13.241 18.1288 13.2426 18.3682 13.1891 18.5974C13.2819 18.6494 13.376 18.6973 13.4711 18.7409C13.5646 18.7837 13.6622 18.8238 13.764 18.8607C13.9023 18.6711 14.0848 18.5161 14.296 18.4103C14.51 18.303 14.7529 18.2465 15.0081 18.2559C15.2642 18.2653 15.5025 18.3396 15.7081 18.4623C15.9105 18.583 16.0811 18.7513 16.2053 18.9511C16.3067 18.9224 16.4069 18.8895 16.5056 18.8528C16.6009 18.8173 16.6984 18.7762 16.7978 18.7297C16.7615 18.498 16.781 18.2595 16.8554 18.0358C16.9311 17.808 17.0629 17.5961 17.2498 17.4226C17.4375 17.2481 17.6586 17.132 17.8907 17.0733C18.1187 17.0158 18.3582 17.0142 18.5874 17.0676C18.6394 16.9749 18.6872 16.8807 18.7308 16.7856C18.7737 16.6922 18.8137 16.5944 18.8508 16.4926C18.6611 16.3544 18.5061 16.1718 18.4003 15.9607C18.293 15.7467 18.2364 15.5038 18.2458 15.2486C18.2552 14.9925 18.3295 14.7541 18.4522 14.5486C18.573 14.3462 18.7412 14.1756 18.941 14.0514C18.9123 13.9499 18.8794 13.8496 18.8426 13.7509C18.8072 13.6556 18.7661 13.5582 18.7196 13.4588C18.4879 13.4951 18.2496 13.4757 18.0257 13.4013C17.798 13.3256 17.586 13.1938 17.4125 13.0069C17.2381 12.8193 17.122 12.5982 17.0634 12.3661C17.0058 12.138 17.0041 11.8985 17.0576 11.6692C16.9648 11.6173 16.8706 11.5694 16.7754 11.5258ZM1.30674 7.52905C1.44535 7.58781 1.62645 7.57429 1.80975 7.44022L7.00625 2.4528C7.12868 2.33536 7.28588 2.27661 7.44269 2.27661C7.59942 2.27661 7.7567 2.33536 7.87905 2.4528L13.0755 7.44014C13.2589 7.57429 13.44 7.58781 13.5786 7.52905C13.6384 7.50374 13.6912 7.46452 13.7333 7.41576C13.7744 7.36826 13.8046 7.31138 13.8202 7.24934C13.8557 7.10824 13.8126 6.93674 13.6485 6.77899L7.87827 1.23551C7.81842 1.17801 7.75061 1.13504 7.67904 1.1066C7.60395 1.07675 7.5241 1.06214 7.44425 1.06284H7.44089C7.3612 1.06214 7.28135 1.07675 7.20635 1.1066C7.13478 1.13504 7.06688 1.17809 7.00703 1.23551L1.23689 6.77899C1.07274 6.93674 1.02969 7.10832 1.06524 7.24942C1.08086 7.31138 1.11102 7.36826 1.15212 7.41576C1.19415 7.46452 1.24697 7.50374 1.30674 7.52905ZM5.93078 14.3654H8.94101V10.1654C8.94101 10.0808 8.90624 10.0038 8.8503 9.94776C8.79436 9.89182 8.71724 9.85705 8.63263 9.85705H6.23916C6.15454 9.85705 6.07751 9.89182 6.02156 9.94776C5.96554 10.0038 5.93078 10.0808 5.93078 10.1654V14.3654ZM6.36308 6.71305C6.37909 6.66172 6.40519 6.61648 6.44035 6.57851C6.47543 6.54069 6.51848 6.51132 6.5684 6.49155L6.57958 6.48764C6.71396 6.43475 6.85335 6.39396 6.99656 6.36654C7.14189 6.33873 7.29104 6.32411 7.44261 6.32411C7.59419 6.32411 7.7435 6.33873 7.88882 6.36654C8.03594 6.39467 8.17916 6.43701 8.31698 6.49202L8.31714 6.49155C8.36659 6.51108 8.40956 6.54069 8.44504 6.57906C8.48043 6.61726 8.50645 6.66234 8.52239 6.71321C8.5384 6.76462 8.5427 6.81642 8.53543 6.86728C8.52825 6.91807 8.50957 6.96667 8.4798 7.01151L8.01453 7.71196C7.97328 7.77399 7.91609 7.81954 7.85069 7.84533C7.786 7.87072 7.71365 7.87635 7.64107 7.859C7.61122 7.85181 7.57856 7.84611 7.5434 7.84197C7.51145 7.83822 7.47777 7.83627 7.44261 7.83627C7.40753 7.83627 7.37394 7.83822 7.34198 7.84197C7.3069 7.84611 7.27424 7.85181 7.24432 7.859C7.17181 7.87635 7.09938 7.8708 7.03477 7.84533C6.96937 7.81954 6.91218 7.77399 6.87093 7.71196L6.40566 7.01136C6.37589 6.96643 6.35722 6.91783 6.34995 6.86697C6.34268 6.81626 6.34698 6.76446 6.36308 6.71305ZM6.64904 6.77267C6.64325 6.77892 6.63857 6.78743 6.63536 6.7979C6.63208 6.80845 6.63099 6.81822 6.63224 6.82689C6.63357 6.83572 6.63724 6.84494 6.64333 6.85408L7.10852 7.5546C7.11657 7.56663 7.12704 7.57523 7.13853 7.57976C7.15072 7.58453 7.16455 7.58562 7.17853 7.58226C7.22314 7.57156 7.26705 7.56359 7.30963 7.55859C7.35433 7.55327 7.39878 7.55062 7.44261 7.55062C7.48652 7.55062 7.53098 7.55327 7.57575 7.55859C7.61841 7.56359 7.66224 7.57156 7.70693 7.58226C7.72084 7.58562 7.73467 7.58453 7.74693 7.57976C7.75842 7.57523 7.76889 7.56663 7.77686 7.5546L8.24213 6.85423C8.24822 6.84509 8.2519 6.83587 8.25315 6.82712C8.2544 6.81837 8.25338 6.80861 8.2501 6.79806C8.24658 6.78689 8.24197 6.77813 8.23635 6.77212C8.23111 6.76642 8.22299 6.76134 8.21221 6.75704L8.21244 6.75657C8.09274 6.70883 7.96672 6.6718 7.8353 6.64664C7.70904 6.6225 7.57778 6.60984 7.44261 6.60984C7.30753 6.60984 7.17626 6.6225 7.05016 6.64664C6.92281 6.67102 6.80053 6.70657 6.68435 6.75212L6.67326 6.75704C6.66302 6.7611 6.65482 6.76642 6.64904 6.77267ZM6.74818 8.19481C6.69951 8.26356 6.66052 8.3406 6.63349 8.42373C6.60677 8.50593 6.59223 8.59437 6.59223 8.6868C6.59223 8.76563 6.52832 8.82962 6.44941 8.82962H5.68763C5.60059 8.82962 5.51856 8.81095 5.44379 8.77478C5.36925 8.73876 5.3037 8.68594 5.24955 8.6175L5.2426 8.60804C5.19205 8.54163 5.1579 8.46874 5.14079 8.39162C5.12274 8.3106 5.12345 8.22661 5.14337 8.14223C5.19322 7.93143 5.27127 7.73157 5.37315 7.54695C5.47683 7.3592 5.60567 7.18676 5.75514 7.03425C5.79311 6.99526 5.83686 6.96674 5.88491 6.94916C5.93265 6.93158 5.9843 6.92518 6.03828 6.9301C6.09243 6.93518 6.14228 6.95135 6.18619 6.97768C6.23057 7.00425 6.2683 7.04042 6.29807 7.08535L6.7635 7.78611C6.8042 7.84759 6.82381 7.91744 6.82233 7.98729C6.82077 8.05769 6.79827 8.12668 6.7549 8.18629L6.74818 8.19481ZM6.36237 8.3356C6.39816 8.22559 6.45082 8.1223 6.51738 8.02886L6.52395 8.01886C6.53285 8.00667 6.53754 7.99378 6.53778 7.98175C6.53801 7.96917 6.53403 7.95581 6.52582 7.94346L6.0604 7.24262C6.0543 7.23341 6.04735 7.22645 6.04008 7.22208C6.03227 7.21739 6.02305 7.2145 6.01266 7.21356C6.00188 7.21254 5.99195 7.21372 5.98305 7.21692C5.97461 7.22004 5.96656 7.22536 5.95929 7.23286L5.95875 7.23341C5.8278 7.36693 5.71459 7.51858 5.62317 7.68422C5.53348 7.8465 5.46496 8.02206 5.42121 8.20692C5.41089 8.25059 5.41011 8.29208 5.41863 8.33021C5.42667 8.36638 5.44316 8.40139 5.46769 8.4342L5.47269 8.44006C5.50012 8.47475 5.53223 8.501 5.56762 8.51819C5.60278 8.53515 5.64318 8.54398 5.68763 8.54398H6.31557C6.32471 8.47241 6.3405 8.40279 6.36237 8.3356ZM6.7231 8.6868C6.7231 8.59023 6.74264 8.49725 6.77795 8.41193C6.81452 8.32365 6.86796 8.24427 6.93414 8.17817L6.9339 8.17785C7.06407 8.04769 7.244 7.96706 7.44261 7.96706C7.53918 7.96706 7.632 7.98659 7.7174 8.0219C7.80577 8.05847 7.88507 8.11191 7.95109 8.17785C8.01742 8.24411 8.07087 8.32357 8.10751 8.41193C8.14283 8.49733 8.16236 8.59023 8.16236 8.6868C8.16236 8.76563 8.09837 8.82962 8.01953 8.82962H6.86593C6.78709 8.82962 6.7231 8.76563 6.7231 8.6868ZM7.04125 8.52015C7.03805 8.52796 7.03508 8.53585 7.03227 8.54398H7.85319C7.85038 8.53585 7.84741 8.52796 7.84421 8.52015C7.82233 8.46733 7.79014 8.41967 7.75029 8.37982C7.7099 8.33951 7.66201 8.30708 7.60911 8.28521C7.55856 8.26427 7.50231 8.2527 7.44261 8.2527C7.32284 8.2527 7.21431 8.3013 7.13579 8.37982L7.13556 8.37951L7.13525 8.37982C7.09532 8.41967 7.06313 8.46733 7.04125 8.52015ZM9.31776 8.51819C9.35323 8.501 9.38527 8.47475 9.41277 8.44006L9.413 8.4403C9.44019 8.40584 9.45816 8.36873 9.46668 8.33021C9.47512 8.29216 9.47434 8.25059 9.46402 8.20692C9.42043 8.02198 9.3519 7.8465 9.26237 7.68414C9.17095 7.51851 9.05774 7.36678 8.92679 7.23325C8.91906 7.22536 8.91093 7.21989 8.90281 7.21692C8.89398 7.21364 8.88382 7.21254 8.87273 7.21356C8.86233 7.2145 8.85312 7.21739 8.84538 7.22208C8.83804 7.22645 8.83116 7.23341 8.82507 7.24262L8.35956 7.94346C8.35128 7.95588 8.34729 7.96917 8.34753 7.98167C8.34784 7.99425 8.35222 8.00722 8.36073 8.01886C8.43074 8.11488 8.4859 8.22153 8.52301 8.33552C8.54489 8.40264 8.56067 8.47241 8.56973 8.54398H9.19775C9.24229 8.54398 9.2826 8.53515 9.31776 8.51819Z" fill="black"/>
</svg>
