<svg width="20" height="21" viewBox="0 0 20 21" fill="none" xmlns="http://www.w3.org/2000/svg">
<path d="M5.66647 6.84912C5.59514 6.84912 5.53711 6.90715 5.53711 6.97848C5.53711 7.04981 5.59514 7.10784 5.66647 7.10784H14.3316C14.4029 7.10784 14.461 7.04981 14.461 6.97848C14.461 6.90715 14.4029 6.84912 14.3316 6.84912H5.66647Z" fill="black"/>
<path d="M18.5003 10.6168H16.4332V9.94453C16.4332 9.79078 16.4927 9.64552 16.5873 9.5243C16.6305 9.46849 16.6542 9.39679 16.6468 9.31917C16.6342 9.1876 16.53 9.07857 16.3992 9.0612C16.3297 9.05196 16.2639 9.06748 16.2099 9.10037C16.0843 9.17651 15.9409 9.21864 15.7945 9.20534C14.5065 9.0867 13.2181 9.0867 11.93 9.20534C11.7837 9.21864 11.6403 9.17688 11.5146 9.10037C11.4606 9.06748 11.3949 9.05196 11.3254 9.0612C11.1945 9.07857 11.0903 9.1876 11.0777 9.31917C11.0703 9.39679 11.0936 9.46886 11.1372 9.5243C11.2319 9.64552 11.2914 9.79078 11.2914 9.94453V10.6168H8.70901V9.94453C8.70901 9.79078 8.76851 9.64552 8.86313 9.5243C8.90637 9.46849 8.93002 9.39679 8.92263 9.31917C8.91007 9.1876 8.80584 9.07857 8.675 9.0612C8.60552 9.05196 8.53973 9.06748 8.48577 9.10037C8.36011 9.17651 8.21671 9.21864 8.07035 9.20534C6.78231 9.0867 5.4939 9.0867 4.20586 9.20534C4.0595 9.21864 3.9161 9.17688 3.79044 9.10037C3.73648 9.06748 3.67069 9.05196 3.60121 9.0612C3.47037 9.07857 3.36615 9.1876 3.35358 9.31917C3.34619 9.39679 3.36947 9.46886 3.41308 9.5243C3.5077 9.64552 3.5672 9.79078 3.5672 9.94453V10.6168H2.24073V7.82934C2.24073 7.43165 2.56449 7.10789 2.96218 7.10789H4.37994C4.45128 7.10789 4.5093 7.04986 4.5093 6.97853C4.5093 6.05417 5.26106 5.30242 6.18541 5.30242H13.8146C14.7389 5.30242 15.4907 6.05417 15.4907 6.97853C15.4907 7.04986 15.5487 7.10789 15.6201 7.10789H17.0378C17.4355 7.10789 17.7593 7.43165 17.7593 7.82934V9.90092C17.7593 9.97225 17.8173 10.0303 17.8886 10.0303C17.96 10.0303 18.018 9.97225 18.018 9.90092V7.82934C18.018 7.28899 17.5782 6.84917 17.0378 6.84917H15.7453C15.6785 5.8424 14.8384 5.0437 13.815 5.0437H6.18504C5.16164 5.0437 4.32118 5.8424 4.25465 6.84917H2.96218C2.42183 6.84917 1.98201 7.28899 1.98201 7.82934V10.6168H1.49895C1.22397 10.6168 1 10.8408 1 11.1158V14.3749C1 14.6439 1.2188 14.8627 1.48787 14.8627H2.17198L1.73919 16.2775H1.48639L1.62646 15.3879C1.63755 15.3173 1.5895 15.2512 1.51891 15.2401C1.44832 15.229 1.38216 15.277 1.37107 15.3476L1.20771 16.3866C1.2018 16.4239 1.21252 16.462 1.23728 16.4908C1.26204 16.5196 1.29789 16.5362 1.33559 16.5362H1.83565C1.89257 16.5362 1.94284 16.4993 1.95947 16.4446L2.44327 14.8627H17.5571L18.0409 16.4446C18.0575 16.4989 18.1078 16.5362 18.1647 16.5362H18.6648C18.7025 16.5362 18.7387 16.5196 18.7631 16.4908C18.7875 16.462 18.7986 16.4239 18.7927 16.3866L18.5524 14.8605C18.8026 14.8398 19 14.6299 19 14.3745V11.1154C18.9993 10.8404 18.7753 10.6168 18.5003 10.6168ZM18.2601 16.2775L17.8273 14.8631H18.2904L18.5129 16.2775H18.2601ZM18.7405 14.3749C18.7405 14.5013 18.6378 14.604 18.5114 14.604H1.48787C1.36146 14.604 1.25872 14.5013 1.25872 14.3749V13.8582H18.7405V14.3749ZM18.7405 11.3693H18.1074C17.9544 11.3693 17.8302 11.4935 17.8302 11.6465V12.2796H1.93988C1.87816 12.2796 1.82198 12.3214 1.80978 12.382C1.79315 12.4652 1.85635 12.5383 1.93655 12.5383H17.8982C17.9718 12.5383 18.0424 12.5091 18.0941 12.457L18.7402 11.811V13.5994H1.25835V11.1158C1.25835 10.9831 1.3659 10.8755 1.49858 10.8755H18.4999C18.6326 10.8755 18.7402 10.9831 18.7402 11.1158V11.3693H18.7405ZM18.5576 11.628L18.0889 12.0967V11.6465C18.0889 11.6362 18.0971 11.628 18.1074 11.628H18.5576Z" fill="black"/>
<path d="M8.21376 4.4482C8.23741 4.4907 8.28139 4.51473 8.32685 4.51473C8.34829 4.51473 8.36973 4.50955 8.38968 4.49846C8.45215 4.46372 8.47432 4.385 8.43958 4.32254L7.97093 3.48208C7.93619 3.41962 7.85747 3.39744 7.79501 3.43218C7.73254 3.46693 7.71037 3.54565 7.74511 3.60811L8.21376 4.4482Z" fill="black"/>
<path d="M11.2051 4.41451C11.2217 4.42154 11.2391 4.42523 11.2561 4.42523C11.3063 4.42523 11.354 4.39603 11.3751 4.34688L11.7561 3.46318C11.7846 3.39776 11.7543 3.32162 11.6885 3.29316C11.6227 3.26471 11.5466 3.29501 11.5185 3.3608L11.1374 4.2445C11.1093 4.30992 11.1397 4.38606 11.2051 4.41451Z" fill="black"/>
<path d="M11.3604 15.6916C11.3283 15.6277 11.251 15.6018 11.1867 15.6339C11.1228 15.6661 11.0969 15.7437 11.1291 15.8076L11.5604 16.6681C11.5829 16.7135 11.6287 16.7394 11.6761 16.7394C11.6956 16.7394 11.7152 16.735 11.7341 16.7257C11.798 16.6936 11.8239 16.616 11.7917 16.552L11.3604 15.6916Z" fill="black"/>
<path d="M8.37116 15.5932C8.30686 15.5622 8.22961 15.5892 8.19819 15.6531L7.7787 16.5191C7.74766 16.5834 7.77427 16.6606 7.83858 16.692C7.85669 16.7009 7.87591 16.705 7.89476 16.705C7.9428 16.705 7.989 16.678 8.01118 16.6318L8.43067 15.7658C8.46209 15.7015 8.4351 15.6243 8.37116 15.5932Z" fill="black"/>
</svg>
