<svg width="20" height="21" viewBox="0 0 20 21" fill="none" xmlns="http://www.w3.org/2000/svg">
<path d="M11.831 5.70953C12.3606 5.65165 12.6715 5.46638 12.9722 5.28722C13.2402 5.12751 13.5162 4.96366 13.9254 4.89675C13.3655 4.14288 12.7457 3.42753 12.079 2.76849C11.4766 2.17301 10.828 1.61548 10.1484 1.10742V5.42425C10.72 5.67297 11.2855 5.76921 11.831 5.70953Z" fill="black"/>
<path d="M9.64453 10.8973H10.3565V5.82167C10.238 5.78117 10.1193 5.73484 10.0005 5.68213C9.88171 5.73484 9.76304 5.78142 9.64457 5.82193V10.8973H9.64453Z" fill="black"/>
<path d="M15.3913 11.1924H4.60938V11.9055H15.3913V11.1924Z" fill="black"/>
<path d="M14.2679 4.86615C14.7432 4.85708 15.0914 4.98279 15.4003 5.0947C15.7576 5.22417 16.0662 5.33597 16.5042 5.21033C16.8094 5.1228 17.093 4.94549 17.3487 4.68257C16.3145 3.62798 15.1196 2.7677 13.795 2.12415C12.771 1.62668 11.6888 1.26974 10.5703 1.05908C11.1711 1.52391 11.7463 2.02622 12.2849 2.55867C13.0049 3.27048 13.6715 4.0467 14.2679 4.86615Z" fill="black"/>
<path d="M2.63831 14.2655L1.52868 8.55195C1.50434 8.42665 1.3942 8.33569 1.2668 8.33569C1.18745 8.33569 1.11276 8.3707 1.06193 8.43174C1.01096 8.49297 0.989969 8.57305 1.00439 8.65147L1.90617 13.5527C2.02915 14.2211 2.09148 14.9046 2.09148 15.5843V18.9629H2.63555V15.0776C2.63555 14.9961 2.70161 14.93 2.78309 14.93H6.13975C6.22123 14.93 6.28729 14.9961 6.28729 15.0776V18.9628H6.83136V14.3849H2.78316C2.71253 14.3849 2.65178 14.3349 2.63831 14.2655Z" fill="black"/>
<path d="M10.3559 18.1024V12.2007H9.64402V18.1024C9.64402 18.1627 9.60732 18.2169 9.55132 18.2393L7.74426 18.963H9.99996H12.2557L10.4486 18.2393C10.3926 18.2169 10.3559 18.1627 10.3559 18.1024Z" fill="black"/>
<path d="M18.9375 8.43174C18.8866 8.3707 18.812 8.33569 18.7326 8.33569C18.6052 8.33569 18.4951 8.42665 18.4707 8.55195L17.3611 14.2655C17.3476 14.3349 17.2869 14.3849 17.2162 14.3849H13.168V18.9628H13.712V15.0776C13.712 14.9961 13.7781 14.93 13.8596 14.93H17.2162C17.2977 14.93 17.3638 14.9961 17.3638 15.0776V18.9628H17.9078V15.5843C17.9078 14.9046 17.9702 14.2211 18.0932 13.5527L18.9949 8.65143C19.0094 8.57305 18.9885 8.49297 18.9375 8.43174Z" fill="black"/>
<path d="M6.07617 4.89675C6.48534 4.96363 6.76143 5.12751 7.02941 5.28722C7.3301 5.46638 7.64101 5.65165 8.17057 5.70953C8.71604 5.76924 9.28164 5.67297 9.85314 5.42425V1.10742C9.17356 1.61548 8.52497 2.17301 7.92259 2.76849C7.25592 3.42756 6.63613 4.14288 6.07617 4.89675Z" fill="black"/>
<path d="M3.49517 5.2103C3.93323 5.336 4.24177 5.22413 4.59905 5.09466C4.90793 4.98275 5.25605 4.85701 5.7314 4.86612C6.32788 4.04667 6.99436 3.27045 7.71444 2.55863C8.25305 2.02622 8.82824 1.52391 9.42903 1.05908C8.31059 1.26974 7.22833 1.62668 6.20431 2.12415C4.87971 2.7677 3.68484 3.62798 2.6506 4.68257C2.90633 4.94546 3.18995 5.12277 3.49517 5.2103Z" fill="black"/>
</svg>
