<svg width="20" height="21" viewBox="0 0 20 21" fill="none" xmlns="http://www.w3.org/2000/svg">
<path d="M6.56362 5.05017C6.5034 4.94498 6.53847 4.81006 6.64366 4.74984C6.74885 4.68962 6.88377 4.72468 6.94399 4.82988L7.06519 5.04025C7.12541 5.14544 7.09035 5.28037 6.98515 5.34059C6.95009 5.36041 6.91274 5.36956 6.87615 5.36956C6.79993 5.36956 6.72599 5.33068 6.68483 5.26055L6.56362 5.05017ZM14.543 7.42305C14.5803 7.42305 14.6169 7.41314 14.652 7.39408L14.8624 7.27288C14.9676 7.21266 15.0026 7.07774 14.9424 6.97255C14.8822 6.86735 14.7473 6.83229 14.6421 6.89251L14.4317 7.01371C14.3265 7.07392 14.2914 7.20884 14.3517 7.31404C14.3928 7.38417 14.4668 7.42305 14.543 7.42305ZM9.68211 4.61716C9.80331 4.61716 9.90088 4.5196 9.90088 4.3984V4.15676C9.90088 4.03556 9.80331 3.93799 9.68211 3.93799C9.56091 3.93799 9.46334 4.03556 9.46334 4.15676V4.3984C9.46106 4.51959 9.56091 4.61716 9.68211 4.61716ZM4.71138 12.6254L4.501 12.7466C4.39581 12.8068 4.36074 12.9417 4.42096 13.0469C4.46212 13.1171 4.53606 13.1559 4.61229 13.1559C4.64964 13.1559 4.68623 13.146 4.72129 13.127L4.93167 13.0058C5.03686 12.9456 5.07192 12.8106 5.0117 12.7054C4.94996 12.6025 4.81734 12.5652 4.71138 12.6254ZM13.6976 17.2111C12.478 17.8941 11.0885 18.2531 9.68211 18.2531C5.13678 18.2531 1.43912 14.5555 1.43912 10.0109C1.43912 5.46636 5.13678 1.7687 9.68133 1.7687C14.2267 1.7687 17.9243 5.46636 17.9243 10.0109C17.9243 10.6375 17.8504 11.2595 17.7094 11.8647L17.3618 11.3258C17.2955 11.2244 17.1606 11.1947 17.0592 11.2595C16.9578 11.3258 16.9281 11.4607 16.9928 11.5621L17.6133 12.5279C17.6446 12.5767 17.6957 12.6117 17.7521 12.6232C17.7673 12.627 17.7833 12.6293 17.7986 12.6293C17.8397 12.6293 17.8824 12.6178 17.9175 12.5942L18.8832 11.9737C18.9846 11.9074 19.0143 11.7725 18.9496 11.6711C18.8832 11.5697 18.7483 11.54 18.6469 11.6048L18.1492 11.9249C18.2894 11.2984 18.3657 10.6588 18.3657 10.0109C18.3657 7.69287 17.4624 5.51124 15.8228 3.87169C14.184 2.23285 12.0024 1.32886 9.68361 1.32886C7.36558 1.32886 5.18394 2.23213 3.5444 3.87169C1.90173 5.5113 1 7.69287 1 10.0109C1 12.3289 1.90327 14.5106 3.54284 16.1501C5.18168 17.789 7.36324 18.693 9.68205 18.693C11.1631 18.693 12.6267 18.3126 13.9126 17.5946C14.0178 17.5359 14.0567 17.4017 13.9965 17.2958C13.9378 17.1898 13.8028 17.1532 13.6976 17.2111ZM4.06957 9.79065H3.82793C3.70673 9.79065 3.60916 9.88822 3.60916 10.0094C3.60916 10.1306 3.70673 10.2282 3.82793 10.2282H4.06957C4.19077 10.2282 4.28834 10.1306 4.28834 10.0094C4.28834 9.88822 4.19077 9.79065 4.06957 9.79065ZM4.501 7.27299L4.71138 7.39418C4.74644 7.414 4.78379 7.42315 4.82038 7.42315C4.8966 7.42315 4.97054 7.38427 5.0117 7.31415C5.07192 7.20896 5.03686 7.07403 4.93167 7.01381L4.72129 6.89261C4.6161 6.8324 4.48117 6.86746 4.42095 6.97265C4.36074 7.07784 4.39581 7.21277 4.501 7.27299ZM15.2939 10.2297H15.5355C15.6567 10.2297 15.7543 10.1321 15.7543 10.0109C15.7543 9.88974 15.6567 9.79217 15.5355 9.79217H15.2939C15.1727 9.79217 15.0751 9.88974 15.0751 10.0109C15.0758 10.1321 15.1734 10.2297 15.2939 10.2297ZM12.7182 4.74986C12.613 4.68964 12.4781 4.7247 12.4179 4.8299L12.2967 5.04027C12.2365 5.14546 12.2715 5.28039 12.3767 5.34061C12.4118 5.36043 12.4492 5.36958 12.4857 5.36958C12.562 5.36958 12.6359 5.3307 12.6771 5.26057L12.7983 5.0502C12.8585 4.94501 12.8234 4.81084 12.7182 4.74986ZM17.4427 14.0661L15.3877 15.8772L14.6483 15.0578C14.566 14.9678 14.428 14.9602 14.3381 15.0426C14.2481 15.1249 14.2405 15.2628 14.3228 15.3528L15.2071 16.3346C15.2497 16.3833 15.3107 16.407 15.3709 16.407C15.422 16.407 15.4746 16.3894 15.515 16.3521L17.7339 14.3968C17.8254 14.3168 17.8338 14.178 17.7537 14.0866C17.6729 13.9936 17.5342 13.9838 17.4427 14.0661ZM19 15.2072C19 16.7645 17.7316 18.0328 16.1744 18.0328C14.861 18.0328 13.7565 17.1295 13.4425 15.9138C12.3182 16.6319 11.0269 17.0145 9.68219 17.0145C5.82062 17.0145 2.68085 13.8724 2.68085 10.0132C2.68085 6.15315 5.82296 3.01183 9.68219 3.01183C13.5414 3.01107 16.6835 6.14925 16.6835 10.0108C16.6835 10.8287 16.5448 11.6268 16.2696 12.386C17.7842 12.4363 19 13.6812 19 15.2072ZM13.3486 15.2072C13.3486 13.781 14.4143 12.6004 15.7902 12.4113C16.0905 11.646 16.2445 10.8403 16.2445 10.0109C16.2445 6.39325 13.2999 3.44862 9.68221 3.44862C6.06378 3.44862 3.11915 6.39325 3.11915 10.0109C3.11915 13.6286 6.06378 16.5732 9.68143 16.5732C11.0047 16.5732 12.273 16.1806 13.3615 15.4412C13.3547 15.3635 13.3486 15.2857 13.3486 15.2072ZM18.5609 15.2072C18.5609 13.8923 17.49 12.8207 16.1744 12.8207C14.8595 12.8207 13.7879 13.8917 13.7879 15.2072C13.7879 16.5221 14.8589 17.5937 16.1744 17.5937C17.4916 17.5937 18.5609 16.5228 18.5609 15.2072ZM12.6772 14.7605C12.6169 14.6553 12.482 14.6203 12.3768 14.6805C12.2716 14.7407 12.2366 14.8756 12.2968 14.9808L12.418 15.1912C12.4591 15.2613 12.5331 15.3002 12.6093 15.3002C12.6467 15.3002 12.6832 15.2903 12.7183 15.2712C12.8235 15.211 12.8586 15.0761 12.7983 14.9709L12.6772 14.7605ZM9.68219 15.4024C9.56099 15.4024 9.46342 15.4999 9.46342 15.6211V15.865C9.46342 15.9862 9.56099 16.0838 9.68219 16.0838C9.80339 16.0838 9.90096 15.9862 9.90096 15.865V15.6234C9.9002 15.5022 9.80263 15.4024 9.68219 15.4024ZM10.3453 9.51154C10.4505 9.6518 10.5153 9.82407 10.5153 10.0108C10.5153 10.4712 10.1403 10.8462 9.6799 10.8462C9.64103 10.8462 9.60368 10.8401 9.56481 10.8348L7.06314 12.2785C6.95948 12.3387 6.84666 12.3662 6.73537 12.3662C6.50897 12.3662 6.2864 12.2488 6.1652 12.0384C6.07754 11.886 6.05391 11.7083 6.09888 11.5391C6.14386 11.3691 6.25286 11.2266 6.40531 11.1389L8.90697 9.69523C8.93594 9.62282 8.97938 9.55879 9.02588 9.49781L9.02664 5.70258C9.02664 5.33974 9.32163 5.04475 9.68447 5.04475C10.0473 5.04475 10.3423 5.33974 10.3423 5.70258L10.3415 9.51167L10.3453 9.51154ZM9.09295 10.6023C8.98929 10.4987 8.91535 10.3683 8.87799 10.222L6.62786 11.5216C6.57679 11.5506 6.54172 11.5978 6.52648 11.6542C6.51124 11.7107 6.51886 11.7693 6.54782 11.8204C6.60804 11.9241 6.74296 11.9607 6.84662 11.9005L9.09295 10.6023ZM9.46723 9.20664C9.53583 9.18911 9.60596 9.17539 9.67989 9.17539C9.75764 9.17539 9.83386 9.18911 9.90629 9.21045V5.70247C9.90629 5.58127 9.80872 5.4837 9.68752 5.4837C9.56632 5.4837 9.46875 5.58127 9.46875 5.70247L9.46951 9.20655L9.46723 9.20664ZM10.0778 10.0108C10.0778 9.79205 9.90019 9.61446 9.68143 9.61446C9.46266 9.61446 9.28507 9.79206 9.28507 10.0108C9.28507 10.2296 9.46267 10.4072 9.68143 10.4072C9.9002 10.4072 10.0778 10.2296 10.0778 10.0108ZM6.98525 14.6805C6.88006 14.6202 6.74514 14.6553 6.68492 14.7605L6.56372 14.9709C6.5035 15.0761 6.53857 15.211 6.64376 15.2712C6.67882 15.291 6.71617 15.3002 6.75276 15.3002C6.82898 15.3002 6.90292 15.2613 6.94409 15.1912L7.06528 14.9808C7.1255 14.8756 7.09045 14.7407 6.98525 14.6805Z" fill="black"/>
</svg>
