<svg width="20" height="21" viewBox="0 0 20 21" fill="none" xmlns="http://www.w3.org/2000/svg">
<path d="M18.7666 2.53902L13.8396 1.08401C13.7005 1.04334 13.5501 1.07018 13.4338 1.1572C13.3175 1.24423 13.2483 1.38086 13.2483 1.52644V2.52518H9.99428C9.56567 2.526 9.21838 2.87329 9.21756 3.30271V4.44541V4.4446C8.31967 4.4755 7.60802 5.21236 7.60802 6.11025C7.60802 7.00814 8.31967 7.74501 9.21756 7.77509V8.47046L8.75397 8.08089C8.74584 8.0695 8.74096 8.05649 8.73283 8.0451L8.59863 7.85397V7.85316C8.26762 7.38551 7.73978 7.09516 7.16721 7.06751L3.78468 6.9138C3.54558 6.90485 3.31378 6.99838 3.14868 7.17162L1.5977 8.81939C1.31792 9.0951 1.29841 9.53916 1.55216 9.83764C1.80673 10.1369 2.24836 10.1882 2.56473 9.95639L4.00102 8.8202V8.82102C4.06039 8.77385 4.13847 8.75758 4.21166 8.77791C4.23118 8.7836 4.25152 8.78686 4.27104 8.78848L5.49912 8.8934L4.30031 11.0673C4.17425 11.2966 4.1222 11.5593 4.15066 11.8196L3.13484 14.8411H3.13566C3.1015 14.9411 3.04619 15.033 2.97299 15.1103L1.20405 16.9695C0.934027 17.2534 0.931591 17.6982 1.19917 17.9837C1.46592 18.27 1.91001 18.2985 2.21093 18.048L4.69067 15.9927C4.88424 15.8325 5.0355 15.6268 5.13067 15.3942L6.00906 13.2552C6.1766 13.291 6.34496 13.3211 6.5125 13.3496L7.49986 13.4765L6.41573 16.1482L6.41654 16.149C6.27421 16.5003 6.42467 16.9029 6.76301 17.0745C7.10135 17.2469 7.51533 17.1315 7.71539 16.8094L9.21675 14.3923V16.6655H9.21756C9.21838 17.0941 9.56567 17.4414 9.99428 17.4422H13.2483V18.4963C13.2483 18.6183 13.2971 18.7354 13.3842 18.8216C13.4704 18.9086 13.5875 18.9566 13.7103 18.9566C13.7558 18.9566 13.8006 18.9501 13.8445 18.9363L18.7698 17.4284C18.9065 17.3861 19 17.2601 19 17.1169V2.8506C19 2.70664 18.9049 2.57968 18.7666 2.53902ZM8.25863 6.11018C8.25863 5.69701 8.5075 5.32534 8.88894 5.16675C9.27037 5.00897 9.70956 5.09681 10.0016 5.38878C10.2935 5.67994 10.3806 6.11913 10.2228 6.50057C10.0642 6.882 9.69249 7.13087 9.27934 7.13087C8.71573 7.13006 8.25945 6.67379 8.25863 6.11018ZM8.7149 9.66676C8.83771 9.50004 8.92148 9.30809 8.96052 9.10477L10.0487 10.0189C10.2163 10.1621 10.4586 10.1759 10.6425 10.0547L12.3626 8.92665H12.3634C12.3992 8.90306 12.4472 8.91119 12.4724 8.94617C12.4976 8.98114 12.4911 9.02912 12.4578 9.05678L10.5562 10.5891C10.3635 10.746 10.087 10.7476 9.89177 10.5923L8.7149 9.66676ZM4.52953 15.1468C4.47422 15.281 4.3872 15.3997 4.27576 15.4916L1.79602 17.5468C1.76024 17.5769 1.70656 17.5737 1.67484 17.5395C1.64231 17.5053 1.64312 17.4517 1.67484 17.4183L3.44379 15.5591L3.4446 15.5583C3.58286 15.4127 3.68778 15.2386 3.75204 15.0475L4.56127 12.6409C4.6117 12.6889 4.667 12.7328 4.72475 12.7718C4.92889 12.9019 5.14766 13.0069 5.37702 13.0841L4.52953 15.1468ZM9.15317 13.2615L7.16301 16.4652V16.466C7.14105 16.5018 7.09469 16.5148 7.05728 16.4953C7.01987 16.4766 7.0036 16.4318 7.01987 16.3928L8.16338 13.5764C8.22763 13.417 8.21055 13.2364 8.11865 13.0917C8.03244 12.9534 7.88604 12.8639 7.7242 12.8509L6.60915 12.707C6.07318 12.6492 5.55348 12.4858 5.08012 12.2271C4.80033 12.0433 4.70926 11.6757 4.86948 11.3821L6.12848 9.10078C6.22201 8.93161 6.22283 8.72665 6.13174 8.55586C6.04065 8.38507 5.86904 8.27282 5.6771 8.25575L4.35384 8.1427H4.35303C4.08871 8.08089 3.81054 8.1427 3.59747 8.31024L2.17825 9.43341C2.13595 9.46351 2.07739 9.45456 2.04568 9.41389C2.01314 9.36998 2.02046 9.30898 2.06276 9.27482L3.62268 7.61812V7.61731C3.65684 7.58152 3.70564 7.562 3.75525 7.56363L7.13777 7.71734C7.50863 7.73524 7.85105 7.92392 8.06575 8.22728L8.19995 8.41841C8.40246 8.70388 8.37806 9.09102 8.1422 9.34884L6.77341 10.8567H6.7726C6.64084 11.0023 6.58717 11.2032 6.62946 11.3951C6.67256 11.5871 6.80513 11.7457 6.98649 11.8221L8.98885 12.6614C9.09377 12.7159 9.17103 12.8119 9.20193 12.9257C9.23284 13.0396 9.21576 13.1616 9.15313 13.2625L9.15317 13.2615ZM7.29801 11.2461L8.28699 10.1571L9.21742 10.8891V12.0521L7.29801 11.2461ZM9.99408 16.7913C9.92495 16.7913 9.86801 16.7344 9.86801 16.6652V11.3023C10.2446 11.4242 10.6577 11.3462 10.9643 11.0957L12.8659 9.5634C13.1692 9.31859 13.2278 8.87858 12.9984 8.56303C12.7691 8.24828 12.3323 8.16858 12.0062 8.38166L10.3804 9.44791L9.86802 9.01686V7.66839V7.6692C10.5187 7.42601 10.9505 6.80466 10.9505 6.11008C10.9505 5.41553 10.5187 4.79334 9.86802 4.55097V3.30254C9.86802 3.2326 9.92495 3.17567 9.99408 3.17567H13.2481V16.7913L9.99408 16.7913ZM18.3484 16.8759L13.8988 18.239V1.78005L18.3484 3.09354V16.8759Z" fill="black"/>
<path d="M1.6995 4.66355H5.67583L4.45911 5.88026C4.33223 6.00714 4.33223 6.21292 4.45911 6.34059C4.58599 6.46746 4.79257 6.46746 4.91943 6.34059L6.69163 4.5684C6.81769 4.44071 6.81769 4.23493 6.69163 4.10807L4.91943 2.33588C4.79256 2.209 4.58597 2.209 4.45911 2.33588C4.33223 2.46276 4.33223 2.66934 4.45911 2.7962L5.67583 4.01292H1.6995C1.51976 4.01292 1.37418 4.1585 1.37418 4.33824C1.37418 4.51798 1.51976 4.66355 1.6995 4.66355Z" fill="black"/>
<path d="M14.88 10.839C15.2143 10.839 15.516 10.6373 15.6437 10.3282C15.7722 10.0191 15.7015 9.66373 15.4648 9.42706C15.2281 9.1904 14.8727 9.11963 14.5637 9.24814C14.2546 9.37582 14.0529 9.67756 14.0529 10.0118C14.0537 10.4681 14.4238 10.8381 14.88 10.839ZM14.88 9.83534C14.9516 9.83534 15.0159 9.87844 15.0427 9.94432C15.0703 10.0102 15.0549 10.0858 15.0045 10.1363C14.954 10.1867 14.8784 10.2021 14.8125 10.1745C14.7467 10.1476 14.7035 10.0834 14.7035 10.0118C14.7035 9.91423 14.7824 9.83534 14.88 9.83534Z" fill="black"/>
</svg>
