<svg width="31" height="31" viewBox="0 0 31 31" fill="none" xmlns="http://www.w3.org/2000/svg">
<path d="M14.0089 18.6895H11.4248V17.0592C11.4248 16.708 11.7095 16.427 12.057 16.427H13.3767C13.7279 16.427 14.0089 16.7117 14.0089 17.0592V18.6895ZM11.9793 18.1349H13.4544V17.0592C13.4544 17.0148 13.4174 16.9815 13.3767 16.9815H12.057C12.0126 16.9815 11.9793 17.0185 11.9793 17.0592V18.1349Z" fill="#19A1DB"/>
<path d="M14.5632 25.1554H10.8701C10.3562 25.1554 9.93848 24.7376 9.93848 24.2237V21.1923C9.93848 20.3716 10.2453 19.5842 10.8035 18.9779L11.5799 18.1313H13.8534L14.6298 18.9779C15.188 19.5842 15.4948 20.3679 15.4948 21.1923V24.2237C15.4948 24.7376 15.0771 25.1554 14.5632 25.1554ZM11.8239 18.6896L11.2102 19.355C10.7481 19.8578 10.493 20.5084 10.493 21.1923V24.2237C10.493 24.4308 10.6631 24.6008 10.8701 24.6008H14.5632C14.7703 24.6008 14.9403 24.4308 14.9403 24.2237V21.1923C14.9403 20.5084 14.6852 19.8578 14.2231 19.355L13.6094 18.6896H11.8239Z" fill="#19A1DB"/>
<path d="M14.1978 22.5268H13.6433V21.2699C13.6433 21.1257 13.6063 20.9852 13.5324 20.8595L13.3105 20.4714L13.7911 20.1941L14.0129 20.5823C14.1349 20.793 14.1978 21.0296 14.1978 21.2699V22.5268Z" fill="#19A1DB"/>
<path d="M11.6609 23.8096H9.94556V21.0776H11.6609C11.9382 21.0776 12.1674 21.3031 12.1674 21.5841V23.3031C12.1674 23.5804 11.9382 23.8096 11.6609 23.8096ZM10.4964 23.2551H11.6091V21.6322H10.4964V23.2551Z" fill="#19A1DB"/>
<path d="M30.4006 27.9871H28.8775L28.8072 27.817C28.5891 27.3032 28.09 26.9742 27.5318 26.9742C26.9736 26.9742 26.4745 27.3069 26.2564 27.817L26.1862 27.9871H11.5504L11.4801 27.817C11.262 27.3032 10.7629 26.9742 10.2047 26.9742C9.64648 26.9742 9.1474 27.3069 8.92929 27.817L8.85905 27.9871H7.33595C7.00693 27.9871 6.73706 27.7172 6.73706 27.3882V24.6045H30.4006C30.7296 24.6045 30.9994 24.8744 30.9994 25.2034V27.3882C30.9994 27.7172 30.7296 27.9871 30.4006 27.9871ZM29.2361 27.4326H30.4006C30.4264 27.4326 30.4449 27.4141 30.4449 27.3882V25.1997C30.4449 25.1738 30.4264 25.1553 30.4006 25.1553H7.29159V27.3845C7.29159 27.4104 7.31007 27.4289 7.33595 27.4289H8.50045C8.83687 26.8115 9.48751 26.4196 10.2047 26.4196C10.9219 26.4196 11.5725 26.8115 11.9089 27.4326H25.8313C26.1677 26.8115 26.8183 26.4196 27.5355 26.4196C28.249 26.4196 28.8996 26.8115 29.2361 27.4326Z" fill="#19A1DB"/>
<path d="M10.2037 30.294C9.13536 30.294 8.2666 29.4252 8.2666 28.3568C8.2666 28.0943 8.31836 27.843 8.41817 27.6027C8.72131 26.8855 9.42371 26.4197 10.2037 26.4197C10.9838 26.4197 11.6825 26.8855 11.9893 27.6027C12.0891 27.843 12.1409 28.098 12.1409 28.3568C12.1409 29.4252 11.2721 30.294 10.2037 30.294ZM10.2037 26.9742C9.64552 26.9742 9.14645 27.3069 8.92834 27.8171C8.8581 27.9871 8.82113 28.1683 8.82113 28.3568C8.82113 29.1184 9.4422 29.7394 10.2037 29.7394C10.9653 29.7394 11.5864 29.1184 11.5864 28.3568C11.5864 28.172 11.5494 27.9908 11.4792 27.8171C11.261 27.3032 10.762 26.9742 10.2037 26.9742Z" fill="#19A1DB"/>
<path d="M10.2039 28.8854C9.91189 28.8854 9.67529 28.6488 9.67529 28.3568C9.67529 28.0647 9.91189 27.8281 10.2039 27.8281C10.496 27.8281 10.7326 28.0647 10.7326 28.3568C10.7326 28.6488 10.496 28.8854 10.2039 28.8854ZM10.2039 28.3309C10.1892 28.3309 10.1781 28.342 10.1781 28.3568C10.1781 28.3716 10.1892 28.3827 10.2039 28.3827C10.2187 28.3827 10.2298 28.3716 10.2298 28.3568C10.2298 28.342 10.2187 28.3309 10.2039 28.3309Z" fill="#19A1DB"/>
<path d="M27.5319 30.294C26.4635 30.294 25.5947 29.4252 25.5947 28.3568C25.5947 28.0943 25.6465 27.843 25.7463 27.6027C26.0494 26.8855 26.7518 26.4197 27.5319 26.4197C28.3119 26.4197 29.0106 26.8855 29.3174 27.6027C29.4173 27.843 29.469 28.098 29.469 28.3568C29.469 29.4252 28.6003 30.294 27.5319 30.294ZM27.5319 26.9742C26.9737 26.9742 26.4746 27.3069 26.2565 27.8171C26.1862 27.9871 26.1493 28.1683 26.1493 28.3568C26.1493 29.1184 26.7703 29.7394 27.5319 29.7394C28.2934 29.7394 28.9145 29.1184 28.9145 28.3568C28.9145 28.172 28.8775 27.9908 28.8073 27.8171C28.5892 27.3032 28.0901 26.9742 27.5319 26.9742Z" fill="#19A1DB"/>
<path d="M27.5321 28.8854C27.24 28.8854 27.0034 28.6488 27.0034 28.3568C27.0034 28.0647 27.24 27.8281 27.5321 27.8281C27.8241 27.8281 28.0607 28.0647 28.0607 28.3568C28.0607 28.6488 27.8241 28.8854 27.5321 28.8854ZM27.5321 28.3309C27.5173 28.3309 27.5062 28.342 27.5062 28.3568C27.5062 28.3716 27.5173 28.3827 27.5321 28.3827C27.5469 28.3827 27.5579 28.3716 27.5579 28.3568C27.5579 28.342 27.5469 28.3309 27.5321 28.3309Z" fill="#19A1DB"/>
<path d="M8.55599 25.1553H6.74084V6.12021C6.74084 5.92797 6.58187 5.76901 6.38964 5.76901H5.24731V3.95386H6.47836C7.62439 3.95386 8.55599 4.88546 8.55599 6.03148V25.1553ZM7.29167 24.6007H7.99777V6.03148C7.99777 5.1923 7.31385 4.50838 6.47467 4.50838H5.79814V5.21448H6.38594C6.88502 5.21448 7.29167 5.62113 7.29167 6.12021V24.6007Z" fill="#19A1DB"/>
<path d="M5.80169 6.1905H1.64643C0.932944 6.1905 0.352539 5.6101 0.352539 4.89661V4.82637C0.352539 4.11288 0.932944 3.53247 1.64643 3.53247H5.80169V6.1905ZM1.64643 4.087C1.23978 4.087 0.907066 4.41971 0.907066 4.82637V4.89661C0.907066 5.30326 1.23978 5.63598 1.64643 5.63598H5.24716V4.087H1.64643Z" fill="#19A1DB"/>
<path d="M7.29236 22.5196H5.01141C3.54006 22.5196 2.34229 21.3218 2.34229 19.8505V11.832H7.29236V22.5196ZM2.89681 12.3866V19.8505C2.89681 21.015 3.8469 21.9651 5.01141 21.9651H6.73783V12.3866H2.89681Z" fill="#19A1DB"/>
<path d="M7.29107 12.3865H1.91956C1.66817 12.3865 1.46484 12.1831 1.46484 11.9318V10.9188C1.46484 10.6674 1.66817 10.4641 1.91956 10.4641H7.29107V12.3865ZM2.01937 11.8319H6.73654V11.0186H2.01937V11.8319Z" fill="#19A1DB"/>
<path d="M18.1903 16.5009L17.6395 16.4344L18.0979 12.6932H8.27905V12.1387H18.7226L18.1903 16.5009Z" fill="#19A1DB"/>
<path d="M17.2932 19.2485L16.6099 24.8445L17.1603 24.9117L17.8436 19.3157L17.2932 19.2485Z" fill="#19A1DB"/>
<path d="M18.8855 12.6934H8.00195V10.4568H18.8855C19.1775 10.4568 19.4141 10.6934 19.4141 10.9854V12.161C19.4141 12.4531 19.1775 12.6934 18.8855 12.6934ZM8.55648 12.1389H18.8596V11.0113H8.55648V12.1389Z" fill="#19A1DB"/>
<path d="M16.023 11.0075H13.975L14.7846 4.37909L11.2356 3.94656C11.0027 3.91699 10.8031 3.77281 10.7033 3.55839L10.097 2.2645C10.0342 2.13141 10.0489 1.97245 10.1377 1.85045C10.2264 1.72845 10.3706 1.66561 10.5184 1.68409L21.5905 3.03344C21.7384 3.05192 21.8641 3.14804 21.9195 3.28852C21.975 3.42531 21.9528 3.58427 21.8567 3.70257L20.962 4.81162C20.8141 4.99646 20.5849 5.08889 20.352 5.05931L16.8031 4.62678L16.023 11.0075ZM14.5961 10.453H15.5277L16.3151 4.00941L20.4149 4.50848C20.4593 4.51218 20.4999 4.49739 20.5295 4.46412L21.2652 3.5547L10.7033 2.26819L11.1987 3.32919C11.2171 3.36985 11.2541 3.39573 11.2985 3.39943L15.3983 3.8985L14.5961 10.453Z" fill="#19A1DB"/>
<path d="M21.6205 3.59903L10.3525 2.22381L10.5374 0.715496C10.5707 0.453021 10.8109 0.264482 11.0734 0.297753L21.3913 1.55838C21.517 1.57316 21.6316 1.63971 21.7092 1.73952C21.7869 1.83934 21.8238 1.96503 21.8091 2.09442L21.6205 3.59903ZM10.9699 1.73952L21.1362 2.98166L21.2434 2.09812L11.0771 0.855977L10.9699 1.73952Z" fill="#19A1DB"/>
<path d="M27.6842 25.1627H19.1592C18.6823 25.1627 18.2794 24.8226 18.1944 24.3568L16.9966 17.6396H20.6417V20.6674C20.6417 20.7931 20.7452 20.8929 20.8672 20.8929H25.9688C26.0945 20.8929 26.1943 20.7894 26.1943 20.6674V17.6396H29.8431L28.6453 24.3568C28.5677 24.8226 28.161 25.1627 27.6842 25.1627ZM17.6583 18.1905L18.7378 24.257C18.7748 24.4603 18.9485 24.6082 19.1555 24.6082H27.6842C27.8912 24.6082 28.0649 24.4603 28.1019 24.257L29.1814 18.1905H26.7526V20.6637C26.7526 21.0962 26.4014 21.4437 25.9725 21.4437H20.8709C20.4383 21.4437 20.0908 21.0925 20.0908 20.6637V18.1905H17.6583Z" fill="#19A1DB"/>
<path d="M25.971 21.4438H20.8694C20.4369 21.4438 20.0894 21.0926 20.0894 20.6638V16.1277C20.0894 15.7506 20.3962 15.4475 20.7696 15.4475H26.0708C26.4479 15.4475 26.7511 15.7543 26.7511 16.1277V20.6675C26.7548 21.0963 26.4036 21.4438 25.971 21.4438ZM20.7696 15.9983C20.6993 15.9983 20.6439 16.0538 20.6439 16.124V20.6638C20.6439 20.7894 20.7474 20.8893 20.8694 20.8893H25.971C26.0967 20.8893 26.1965 20.7858 26.1965 20.6638V16.1277C26.1965 16.0575 26.1411 16.002 26.0708 16.002H20.7696V15.9983Z" fill="#19A1DB"/>
<path d="M20.644 18.1904H16.7439C16.4592 18.1904 16.2263 17.9575 16.2263 17.6729V16.708C16.2263 16.4233 16.4592 16.1904 16.7439 16.1904H20.6403V18.1904H20.644ZM16.7808 17.6359H20.0895V16.745H16.7808V17.6359Z" fill="#19A1DB"/>
<path d="M30.0981 18.1904H26.2017V16.1904H30.1018C30.3865 16.1904 30.6194 16.4233 30.6194 16.708V17.6729C30.6194 17.9575 30.3865 18.1904 30.0981 18.1904ZM26.7562 17.6359H30.0649V16.745H26.7562V17.6359Z" fill="#19A1DB"/>
<path d="M24.3858 15.7209H23.8313V19.4067H24.3858V15.7209Z" fill="#19A1DB"/>
<path d="M26.6039 11.1185H26.1455L26.0974 10.9041C25.9237 10.15 25.3248 9.54737 24.567 9.37362L24.3525 9.32556V8.86715L24.567 8.81909C24.9403 8.73407 25.2804 8.54553 25.5503 8.27566C25.8202 8.00579 26.0087 7.66568 26.0938 7.2923L26.1418 7.07788H26.6002L26.6483 7.2923C26.7333 7.66568 26.9218 8.00579 27.1917 8.27566C27.4616 8.54553 27.8017 8.73407 28.1751 8.81909L28.3895 8.86715V9.32556L28.1751 9.37362C27.8017 9.45865 27.4616 9.64719 27.1917 9.91706C26.9218 10.1869 26.7333 10.527 26.6483 10.9004L26.6039 11.1185ZM25.3729 9.09636C25.7906 9.33296 26.1381 9.68046 26.3747 10.0982C26.4893 9.89118 26.6372 9.69894 26.8072 9.52519C26.9773 9.35514 27.1695 9.21096 27.3766 9.09266C27.1695 8.97806 26.9773 8.83388 26.8072 8.66383C26.6372 8.49377 26.493 8.30154 26.3747 8.09451C26.2601 8.30154 26.1159 8.49377 25.9459 8.66383C25.7758 8.83758 25.5836 8.98176 25.3729 9.09636Z" fill="#19A1DB"/>
<path d="M30.0014 3.72486H29.5504L29.5023 3.51045C29.4173 3.14816 29.1326 2.8598 28.7703 2.77847L28.5559 2.73041V2.2794L28.7703 2.23134C28.9478 2.19067 29.1141 2.09825 29.2435 1.96886C29.3729 1.83947 29.4653 1.67681 29.506 1.49567L29.5541 1.28125H30.0051L30.0531 1.49567C30.0938 1.67312 30.1825 1.83947 30.3156 1.96886C30.445 2.09825 30.6077 2.19067 30.7888 2.23134L31.0032 2.2794V2.73041L30.7888 2.77847C30.6114 2.81914 30.445 2.91156 30.3156 3.04095C30.1862 3.17034 30.0938 3.333 30.0531 3.51414L30.0014 3.72486ZM29.4653 2.50491C29.5836 2.59363 29.6871 2.69714 29.7759 2.81544C29.8202 2.75629 29.8683 2.70084 29.92 2.64908C29.9718 2.59733 30.0273 2.54927 30.0864 2.50491C30.0273 2.46054 29.9718 2.41248 29.92 2.36073C29.8683 2.30897 29.8202 2.25352 29.7759 2.19437C29.7315 2.25352 29.6834 2.30897 29.6317 2.36073C29.5799 2.41248 29.5245 2.46054 29.4653 2.50491Z" fill="#19A1DB"/>
</svg>
