<svg width="33" height="33" viewBox="0 0 33 33" fill="none" xmlns="http://www.w3.org/2000/svg">
<path fill-rule="evenodd" clip-rule="evenodd" d="M30.3043 22.2463H25.9864C25.9864 22.0977 25.9864 21.9437 25.9864 21.7866C25.9864 16.1083 25.9863 5.06292 25.9863 5.06292C26.0111 3.32592 24.5049 1.8217 22.7695 1.84601C21.0339 1.82116 19.5279 3.32619 19.5526 5.06292V20.0999C19.5537 20.2329 19.5333 20.3632 19.4945 20.487C19.4687 20.5696 19.432 20.6478 19.3907 20.7235C19.2464 20.9882 19.0158 21.2053 18.7326 21.323C18.7278 21.3261 18.7214 21.3272 18.7163 21.33C18.6594 21.3614 18.5909 21.3787 18.5167 21.3892V12.02V10.8458C18.5167 10.1876 18.4126 9.55301 18.2223 8.95585C18.2218 8.95434 18.2224 8.95276 18.2219 8.95125C18.1674 8.78076 18.1047 8.61392 18.0363 8.44998C18.0113 8.39001 17.9822 8.33243 17.9554 8.27343C17.9049 8.16252 17.8532 8.05252 17.7966 7.94513C17.7609 7.87734 17.7229 7.81119 17.6849 7.74489C17.6297 7.64882 17.5723 7.5544 17.5123 7.46158C17.4701 7.39634 17.4278 7.33149 17.3833 7.26789C17.3175 7.17401 17.2481 7.08313 17.1774 6.99307C17.1337 6.93737 17.0919 6.88049 17.0465 6.82634C16.9323 6.69046 16.8136 6.55858 16.6886 6.43282C16.6522 6.39625 16.6126 6.36316 16.5754 6.32746C16.4797 6.23573 16.3826 6.14558 16.2812 6.05998C16.2239 6.01152 16.1642 5.96625 16.1051 5.91985C16.0506 5.87704 15.9983 5.83146 15.9425 5.79043C15.9085 5.76549 15.8721 5.74373 15.8376 5.71946C15.7759 5.67607 15.7136 5.63398 15.6503 5.59279C15.5539 5.52998 15.4554 5.4707 15.3554 5.41313C15.2949 5.37834 15.2355 5.3424 15.1738 5.30961C15.0319 5.23407 14.8868 5.16401 14.7389 5.09931C14.7056 5.08479 14.6725 5.07004 14.639 5.0561C14.483 4.99113 14.3237 4.93295 14.1617 4.88058C14.1013 4.86107 14.0396 4.84498 13.9784 4.82725C13.8564 4.79192 13.7334 4.75955 13.6085 4.73158C13.5415 4.71661 13.4742 4.70276 13.4063 4.68995C13.2772 4.66552 13.1466 4.64607 13.0148 4.62976C12.954 4.62228 12.8938 4.61313 12.8325 4.60737C12.64 4.58934 12.4458 4.57767 12.2489 4.57764C12.2489 4.57764 12.2486 4.57764 12.2486 4.57764H7.82076C7.63922 4.57764 7.46713 4.6124 7.30119 4.66189C6.54128 4.88831 5.97979 5.58579 5.98025 6.41816V9.05013V22.2463H3.05119C2.67319 22.2463 2.32952 22.4008 2.08098 22.6494C1.83219 22.8982 1.67773 23.2417 1.67773 23.6196V29.3686C1.67743 30.1219 2.29734 30.7424 3.05119 30.742H30.3043C30.6816 30.742 31.025 30.5869 31.2751 30.3369C31.5236 30.0877 31.6777 29.7449 31.6777 29.3686V23.6196C31.6776 22.8636 31.0604 22.2464 30.3043 22.2463ZM18.9432 21.8511C19.0025 21.8265 19.0617 21.8023 19.1181 21.7718C19.1577 21.7504 19.1944 21.7251 19.2324 21.7009C19.2852 21.6674 19.3371 21.6332 19.3864 21.5947C19.4199 21.5686 19.4511 21.5405 19.4827 21.5122C19.5322 21.468 19.5796 21.4222 19.6244 21.3732C19.6505 21.3447 19.6753 21.3156 19.6997 21.2856C19.7441 21.2309 19.7848 21.1741 19.8231 21.1148C19.8428 21.0843 19.8622 21.0542 19.8802 21.0226C19.915 20.9614 19.9448 20.8981 19.9725 20.8332C19.9878 20.7978 20.0039 20.7632 20.0171 20.7268C20.0379 20.6683 20.0527 20.6081 20.0675 20.5475C20.0793 20.5001 20.093 20.4537 20.1009 20.4053C20.1019 20.3991 20.1043 20.3934 20.1052 20.3873H21.4172C21.4168 20.3911 21.4169 20.3949 21.4166 20.3986C21.4032 20.543 21.3779 20.6838 21.3458 20.8219C21.3381 20.8552 21.3294 20.8881 21.3206 20.9211C21.2856 21.0523 21.2449 21.1812 21.1942 21.3052C21.1913 21.312 21.1894 21.3192 21.1866 21.3261C21.1606 21.3883 21.1299 21.4479 21.1001 21.508C21.0836 21.5417 21.0695 21.5767 21.0516 21.6098C21.0214 21.666 20.9865 21.7193 20.953 21.7736C20.8289 21.9745 20.6842 22.1631 20.5172 22.3342C20.5156 22.336 20.514 22.3376 20.5124 22.3395C20.5054 22.3467 20.4994 22.3546 20.4924 22.3616H20.4912C19.975 22.8778 19.2838 23.22 18.5167 23.2889V22.2715V21.9756C18.6229 21.96 18.7262 21.9337 18.8266 21.8999C18.8668 21.8865 18.9042 21.8673 18.9432 21.8511ZM17.942 21.71C17.942 21.7102 17.9419 21.7102 17.9419 21.7104V21.9841H12.5357V13.5632C12.5357 13.2183 12.6772 12.9042 12.9044 12.676C13.1319 12.4487 13.4462 12.3074 13.7915 12.3074H17.942V21.71ZM17.942 10.8458V11.7327H13.7915C13.2887 11.7327 12.8312 11.9387 12.4997 12.2701H12.4985C12.167 12.6016 11.961 13.0596 11.961 13.5632V21.9841H8.49692V10.021C8.49692 9.76925 8.42013 9.53492 8.29107 9.33755H17.7313C17.8648 9.81907 17.942 10.3234 17.942 10.8458ZM7.58228 21.984C7.58183 21.984 7.58134 21.9841 7.58083 21.9841H6.55495C6.55495 19.8728 6.55495 13.2298 6.55495 9.33755H7.23955C7.61549 9.33804 7.92222 9.64495 7.92222 10.021V21.9841H7.58373C7.58322 21.9841 7.58277 21.984 7.58228 21.984ZM7.40283 22.5588H7.79158C8.2394 22.6022 8.69986 22.7969 9.1254 23.1968V23.198C11.1025 25.3 8.14192 28.2608 6.0391 26.2856C4.57913 24.7346 5.81173 22.7153 7.40283 22.5588ZM9.28552 22.5588H12.2484H17.9419V23.5892V24.2956C17.8562 24.2815 17.7698 24.2691 17.6802 24.2691C17.113 24.2566 16.6575 24.5448 16.3769 24.9539C15.5685 24.9539 11.4707 24.9539 10.3099 24.9539C10.3741 24.0584 10.0326 23.1342 9.28552 22.5588ZM18.4158 25.1481C19.3606 26.1433 17.9396 27.5638 16.9444 26.6196C15.9999 25.6249 17.4209 24.203 18.4158 25.1481ZM21.5545 21.8834C21.5585 21.8761 21.5614 21.8682 21.5654 21.8609C21.646 21.7102 21.7136 21.5526 21.7733 21.3915C21.8374 21.2186 21.8926 21.0419 21.9303 20.8594C21.931 20.8559 21.9322 20.8526 21.933 20.8491C21.9826 20.6058 22.0079 20.3552 22.006 20.0999V5.06292C22.006 4.95979 22.0266 4.86164 22.0636 4.77307C22.3794 4.00631 23.5323 4.24076 23.533 5.06292V21.7866V22.2463C23.2477 22.2463 22.7869 22.2463 22.3192 22.2463C21.9658 22.2463 21.613 22.2463 21.327 22.2463C21.4088 22.1292 21.4861 22.0091 21.5545 21.8834ZM24.1077 22.0739H25.4116V24.7868H24.1077V22.0739ZM23.8203 25.3615H25.699C25.8577 25.3615 25.9864 25.2328 25.9864 25.0742C25.9864 25.0742 25.9864 24.8536 25.9864 24.4631H27.5618C27.7779 24.4638 27.9563 24.6394 27.9556 24.8569V26.5298C27.9556 26.6385 27.9116 26.737 27.8409 26.8076H27.8397C27.7683 26.8791 27.6697 26.9235 27.5618 26.9235H21.9576C21.8496 26.9235 21.7511 26.8791 21.6796 26.8076C21.6066 26.7377 21.5644 26.6383 21.5638 26.5298V24.8569C21.5638 24.7481 21.6078 24.6496 21.6784 24.579H21.6796C21.7511 24.5076 21.8496 24.4631 21.9576 24.4631H23.533V25.0742C23.533 25.2328 23.6617 25.3615 23.8203 25.3615ZM23.7776 2.62067C24.1012 2.75513 24.3927 2.95182 24.636 3.19519V3.1964C25.1289 3.68982 25.412 4.35189 25.4116 5.06292V21.4992H24.1077V5.06292C24.111 4.5267 23.7702 4.0291 23.2794 3.82722C22.4393 3.44749 21.407 4.14213 21.4313 5.06292V19.8126H20.1273C20.1273 17.7376 20.1273 5.06292 20.1274 5.06295C20.075 3.23673 22.1165 1.87867 23.7776 2.62067ZM12.2485 5.15237C12.2486 5.15237 12.2488 5.15237 12.2489 5.15237C12.4258 5.15237 12.6003 5.16304 12.7732 5.1791C12.8234 5.18373 12.873 5.19046 12.9228 5.1964C13.0503 5.21167 13.1764 5.23101 13.3011 5.25458C13.3506 5.26395 13.4002 5.27273 13.4492 5.28337C13.6062 5.31746 13.7614 5.35667 13.9134 5.40352C13.9223 5.40625 13.9315 5.40813 13.9404 5.41092C14.1032 5.46198 14.2621 5.52176 14.4183 5.58676C14.4582 5.60334 14.4972 5.62179 14.5366 5.63928C14.6554 5.69192 14.7722 5.74822 14.8866 5.80861C14.9265 5.82961 14.9664 5.85049 15.0058 5.87243C15.1389 5.94679 15.2693 6.02549 15.3956 6.10995C15.4077 6.11804 15.4205 6.12516 15.4324 6.13331C15.5745 6.22982 15.7116 6.33316 15.8442 6.44173C15.8679 6.46119 15.8905 6.48207 15.9139 6.50192C16.019 6.59076 16.1207 6.68337 16.2191 6.77946C16.2512 6.81076 16.2829 6.84237 16.3142 6.87443C16.4077 6.97013 16.4975 7.06931 16.5842 7.17131C16.6075 7.19876 16.6319 7.22507 16.6547 7.25295C16.7601 7.38182 16.8603 7.5151 16.9543 7.65292C16.9735 7.6811 16.9905 7.71101 17.0093 7.73958C17.0812 7.84907 17.1496 7.96101 17.214 8.07552C17.2423 8.12613 17.2692 8.1777 17.2962 8.22928C17.3491 8.33058 17.3988 8.4337 17.4457 8.5384C17.4683 8.58873 17.4915 8.6387 17.5126 8.68989C17.5226 8.71376 17.5299 8.73879 17.5395 8.76282H7.11428C6.92334 8.75452 6.73258 8.75792 6.55495 8.76149C6.55495 7.34828 6.55495 6.41816 6.55495 6.41816C6.55495 6.07043 6.69761 5.75392 6.92704 5.52446C7.15649 5.29495 7.47298 5.15237 7.82076 5.15237H12.2485ZM31.103 29.3686C31.1026 29.8093 30.745 30.167 30.3043 30.1673H3.05119C2.61046 30.1669 2.25276 29.8093 2.25246 29.3686V23.6196C2.25246 23.4003 2.34252 23.2007 2.48737 23.0559C2.63216 22.911 2.83192 22.821 3.05119 22.821H5.5884C4.14543 24.3401 4.80876 27.401 7.58219 27.4983C9.04604 27.4468 9.92131 26.5691 10.2106 25.5287C11.1322 25.5287 14.8822 25.5287 16.1192 25.5287C15.9949 26.0439 16.1055 26.6138 16.5396 27.0254C18.0929 28.4883 20.2842 26.2948 18.8219 24.742H18.8207C18.7303 24.6517 18.6263 24.5766 18.5167 24.5096V23.8634C19.4088 23.7989 20.2186 23.4113 20.8337 22.821H23.533V23.8884H21.9576C21.4247 23.888 20.9895 24.3256 20.989 24.8569V26.5298C20.9893 27.0609 21.4243 27.4991 21.9576 27.4982H27.5618C27.8285 27.4982 28.0707 27.3894 28.2455 27.2133C28.4212 27.0376 28.5303 26.7953 28.5303 26.5298V24.8569C28.5307 24.5904 28.4209 24.3513 28.2461 24.1726C28.0707 23.9972 27.8285 23.8884 27.5618 23.8884H25.9864C25.9864 23.5816 25.9864 23.2232 25.9864 22.821H30.3043C30.7429 22.821 31.103 23.181 31.103 23.6196V29.3686Z" fill="#19A1DB"/>
</svg>
