<svg width="33" height="33" viewBox="0 0 33 33" fill="none" xmlns="http://www.w3.org/2000/svg">
<path d="M31.1937 1.29395H3.77438C3.50663 1.29395 3.29051 1.51007 3.29051 1.77782V26.1939L2.62276 26.7391C2.06147 27.1972 1.71954 27.8746 1.68083 28.5972C1.64534 29.3197 1.91631 30.0294 2.42922 30.5423C2.90986 31.023 3.5647 31.2939 4.24534 31.2939C4.28728 31.2939 4.33244 31.2939 4.37438 31.2907C5.09696 31.2552 5.77438 30.9101 6.23244 30.3488L6.7776 29.681H31.1937C31.4615 29.681 31.6776 29.4649 31.6776 29.1972V1.77782C31.6776 1.51007 31.4615 1.29395 31.1937 1.29395ZM5.48083 29.7391C5.19051 30.0939 4.78083 30.3036 4.32276 30.3262C3.8647 30.3488 3.43567 30.1843 3.11309 29.8617C2.79051 29.5391 2.62276 29.1068 2.64857 28.652C2.67115 28.1939 2.88083 27.7843 3.23567 27.4939L9.44212 22.4359L10.5421 23.5359L5.48405 29.7391H5.48083ZM14.0292 18.9423C13.6324 18.5456 13.1066 18.3294 12.5453 18.3294C12.0808 18.3294 11.6421 18.481 11.2808 18.7552L8.27115 15.7456L10.1486 13.8681L19.1002 22.8198L17.2228 24.6972L14.2131 21.6875C14.4873 21.3262 14.6389 20.8875 14.6389 20.423C14.6389 19.8617 14.4195 19.3359 14.026 18.9391L14.0292 18.9423ZM11.7486 19.6262C12.1744 19.2004 12.9195 19.2004 13.3453 19.6262C13.5582 19.8391 13.6776 20.123 13.6776 20.423C13.6776 20.723 13.5615 21.0068 13.3453 21.2197L11.4712 23.0939L9.87438 21.4972L11.7486 19.623V19.6262ZM11.4712 24.2649C11.6002 24.2649 11.7228 24.2133 11.8131 24.123L13.5486 22.3875L16.8841 25.723C16.9744 25.8133 17.097 25.8649 17.226 25.8649C17.355 25.8649 17.4776 25.8133 17.5679 25.723L20.1292 23.1617C20.3195 22.9714 20.3195 22.6649 20.1292 22.4778L10.4905 12.8391C10.3099 12.6585 9.98728 12.6585 9.80663 12.8391L7.24534 15.4004C7.05502 15.5907 7.05502 15.8972 7.24534 16.0843L10.5808 19.4198L8.84534 21.1552C8.69051 21.3101 8.67115 21.5423 8.76792 21.723L6.19696 23.8198V3.99072H28.797V26.9843H8.97438L11.2421 24.2036C11.3131 24.2423 11.3905 24.2649 11.4712 24.2649ZM30.7099 28.7133H7.5647L8.18405 27.952H29.2808C29.5486 27.952 29.7647 27.7359 29.7647 27.4681V3.50685C29.7647 3.23911 29.5486 3.02298 29.2808 3.02298H5.71631C5.44857 3.02298 5.23244 3.23911 5.23244 3.50685V24.6133L4.25825 25.4068V2.26169H30.7099V28.7133Z" fill="#19A1DB"/>
<path d="M15.6068 8.19387C15.7164 8.19387 15.8293 8.15516 15.9197 8.07774L18.4713 5.91322C18.6745 5.73903 18.7003 5.4358 18.5261 5.23258C18.3519 5.02935 18.0487 5.00354 17.8455 5.17774L15.2939 7.34225C15.0906 7.51645 15.0648 7.81967 15.239 8.0229C15.3358 8.1358 15.4713 8.19387 15.6068 8.19387Z" fill="#19A1DB"/>
<path d="M27.0097 15.5519L20.7194 21.5842C20.5258 21.768 20.5194 22.0745 20.7065 22.268C20.8 22.368 20.929 22.4164 21.0548 22.4164C21.1742 22.4164 21.2968 22.3713 21.3903 22.2809L27.6806 16.2487C27.8742 16.0648 27.8806 15.7584 27.6935 15.5648C27.5097 15.3713 27.2032 15.3648 27.0097 15.5519Z" fill="#19A1DB"/>
<path d="M23.2616 14.5391C23.3584 14.6423 23.4874 14.6939 23.6164 14.6939C23.7358 14.6939 23.8551 14.652 23.9455 14.5649L27.6777 11.0746C27.8745 10.8907 27.8842 10.5842 27.7003 10.3907C27.5164 10.1971 27.21 10.1842 27.0164 10.3681L23.2842 13.8584C23.0874 14.0423 23.0777 14.3487 23.2616 14.5423V14.5391Z" fill="#19A1DB"/>
<path d="M24.7419 7.36171C24.858 7.36171 24.9773 7.31977 25.0677 7.23267L26.6806 5.7488C26.8773 5.56816 26.8903 5.26171 26.7096 5.06493C26.529 4.86816 26.2225 4.85525 26.0257 5.0359L24.4128 6.51977C24.2161 6.70042 24.2032 7.00687 24.3838 7.20364C24.4806 7.30687 24.6096 7.35848 24.7386 7.35848L24.7419 7.36171Z" fill="#19A1DB"/>
<path d="M15.7197 9.80372C13.952 9.37469 13.5294 6.82953 13.5262 6.80372C13.4907 6.56824 13.2875 6.39404 13.0488 6.39404C12.8101 6.39404 12.6068 6.56824 12.5714 6.80372C12.5681 6.82953 12.1455 9.37469 10.3778 9.80372C10.1617 9.85533 10.0068 10.0521 10.0068 10.2747C10.0068 10.4973 10.1584 10.6908 10.3778 10.7457C12.1455 11.1747 12.5681 13.7198 12.5714 13.7457C12.6068 13.9811 12.8101 14.1553 13.0488 14.1553C13.2875 14.1553 13.4907 13.9811 13.5262 13.7457C13.5294 13.7198 13.952 11.1747 15.7197 10.7457C15.9359 10.694 16.0907 10.4973 16.0907 10.2747C16.0907 10.0521 15.9391 9.85856 15.7197 9.80372ZM13.0455 12.0586C12.7584 11.4295 12.3165 10.7424 11.6455 10.2715C12.3165 9.80372 12.7617 9.1134 13.0455 8.48437C13.3326 9.1134 13.7746 9.80049 14.4455 10.2715C13.7746 10.7392 13.3294 11.4263 13.0455 12.0586Z" fill="#19A1DB"/>
<path d="M22.6129 16.3713C22.829 16.3197 22.9839 16.1229 22.9839 15.9003C22.9839 15.6778 22.8323 15.4842 22.6129 15.4294C20.5581 14.9326 20.071 11.9939 20.0677 11.9649C20.0323 11.7294 19.829 11.5552 19.5903 11.5552C19.3516 11.5552 19.1484 11.7294 19.1129 11.9649C19.1097 11.9939 18.6226 14.9326 16.5677 15.4326C16.3516 15.4842 16.1968 15.681 16.1968 15.9036C16.1968 16.1261 16.3484 16.3197 16.5677 16.3745C18.6226 16.8713 19.1097 19.81 19.1129 19.839C19.1484 20.0745 19.3516 20.2487 19.5903 20.2487C19.829 20.2487 20.0323 20.0745 20.0677 19.839C20.071 19.81 20.5581 16.8713 22.6129 16.3713ZM19.5871 18.0939C19.2581 17.3261 18.7226 16.4584 17.8742 15.9003C18.7226 15.3423 19.2581 14.4745 19.5871 13.7068C19.9161 14.4745 20.4516 15.3423 21.3 15.9003C20.4516 16.4584 19.9161 17.3261 19.5871 18.0939Z" fill="#19A1DB"/>
<path d="M18.0132 8.22952C18.0132 8.4521 18.1648 8.64565 18.3842 8.70049C20.1519 9.12952 20.5745 11.6747 20.5777 11.7005C20.6132 11.936 20.8164 12.1102 21.0551 12.1102C21.2938 12.1102 21.4971 11.936 21.5325 11.7005C21.5358 11.6747 21.9583 9.12952 23.7261 8.70049C23.9422 8.64888 24.0971 8.4521 24.0971 8.22952C24.0971 8.00694 23.9454 7.81339 23.7261 7.75855C21.9583 7.32952 21.5358 4.78436 21.5325 4.75855C21.4971 4.52307 21.2938 4.34888 21.0551 4.34888C20.8164 4.34888 20.6132 4.52307 20.5777 4.75855C20.5745 4.78436 20.1519 7.32952 18.3842 7.75855C18.168 7.81017 18.0132 8.00694 18.0132 8.22952ZM21.0551 6.44243C21.3422 7.07146 21.7842 7.75855 22.4551 8.22952C21.7842 8.69726 21.339 9.38759 21.0551 10.0166C20.768 9.38759 20.3261 8.70049 19.6551 8.22952C20.3261 7.76178 20.7712 7.07146 21.0551 6.44243Z" fill="#19A1DB"/>
</svg>
