<svg width="22" height="21" viewBox="0 0 22 21" fill="none" xmlns="http://www.w3.org/2000/svg">
<path d="M9.27827 4.151C9.41006 3.80351 9.93323 3.80351 10.065 4.151C10.6224 5.62079 11.6939 8.17681 12.7655 9.24831C13.8398 10.3226 16.2672 11.397 17.6502 11.9531C17.9878 12.0889 17.9878 12.5955 17.6502 12.7313C16.2671 13.2874 13.8398 14.3618 12.7655 15.436C11.6939 16.5075 10.6224 19.0636 10.065 20.5333C9.93323 20.8808 9.41006 20.8808 9.27827 20.5333C8.72091 19.0636 7.64937 16.5075 6.57784 15.436C5.50629 14.3644 2.95022 13.293 1.48042 12.7357C1.13291 12.6039 1.13291 12.0807 1.48041 11.9489C2.95021 11.3914 5.50629 10.3199 6.57784 9.24831C7.64937 8.17681 8.72091 5.62079 9.27827 4.151Z" fill="#19A1DB"/>
<path d="M16.9952 1.05136C17.1378 0.708142 17.674 0.708142 17.8166 1.05136C18.1127 1.76447 18.5328 2.64079 18.9528 3.06085C19.3754 3.4835 20.2169 3.90616 20.8934 4.20263C21.2268 4.34874 21.2268 4.86689 20.8934 5.01298C20.2169 5.30941 19.3754 5.73204 18.9528 6.15471C18.5328 6.57476 18.1127 7.45108 17.8166 8.16419C17.674 8.5074 17.1378 8.5074 16.9952 8.16419C16.6991 7.45108 16.279 6.57476 15.859 6.15471C15.4388 5.73464 14.5625 5.3146 13.8494 5.01844C13.5063 4.87591 13.5063 4.33972 13.8494 4.19715C14.5625 3.90098 15.4388 3.4809 15.859 3.06085C16.279 2.64079 16.6991 1.76447 16.9952 1.05136Z" fill="#19A1DB"/>
<path d="M2.02432 3.10666C2.17991 2.76914 2.72609 2.76914 2.88168 3.10666C3.05833 3.48984 3.27132 3.87877 3.4843 4.09174C3.70011 4.30757 4.07977 4.52338 4.44829 4.7014C4.77603 4.85972 4.77603 5.3864 4.44829 5.54471C4.07975 5.72271 3.70011 5.93852 3.4843 6.15433C3.27132 6.36731 3.05833 6.75624 2.88168 7.13942C2.72609 7.47694 2.17991 7.47694 2.02432 7.13942C1.84767 6.75624 1.63469 6.36731 1.42171 6.15433C1.20873 5.94135 0.819805 5.72838 0.43662 5.55173C0.0990993 5.39615 0.0990838 4.84996 0.436604 4.69438C0.81979 4.51772 1.20873 4.30472 1.42171 4.09174C1.63469 3.87877 1.84767 3.48984 2.02432 3.10666Z" fill="#19A1DB"/>
</svg>
