<svg width="33" height="33" viewBox="0 0 33 33" fill="none" xmlns="http://www.w3.org/2000/svg">
<path d="M31.6628 29.6852L28.9802 11.8657C28.9317 11.5321 28.7642 11.2272 28.5088 11.0073C28.2533 10.7874 27.9269 10.6672 27.5898 10.6689H24.6466V9.73145C24.6466 9.23416 24.449 8.75725 24.0974 8.40562C23.7458 8.05399 23.2688 7.85645 22.7716 7.85645C22.2743 7.85645 21.7974 8.05399 21.4457 8.40562C21.0941 8.75725 20.8966 9.23416 20.8966 9.73145V12.5439H17.1466V9.73145C17.1466 9.4828 17.2453 9.24435 17.4211 9.06853C17.597 8.89272 17.8354 8.79395 18.0841 8.79395C18.3327 8.79395 18.5712 8.89272 18.747 9.06853C18.9228 9.24435 19.0216 9.4828 19.0216 9.73145C19.0216 9.85577 19.0709 9.97499 19.1589 10.0629C19.2468 10.1508 19.366 10.2002 19.4903 10.2002C19.6146 10.2002 19.7339 10.1508 19.8218 10.0629C19.9097 9.97499 19.9591 9.85577 19.9591 9.73145C19.9591 9.23416 19.7615 8.75725 19.4099 8.40562C19.0583 8.05399 18.5813 7.85645 18.0841 7.85645C17.5868 7.85645 17.1099 8.05399 16.7582 8.40562C16.4066 8.75725 16.2091 9.23416 16.2091 9.73145V10.6689H13.8653C13.741 10.6689 13.6218 10.7183 13.5339 10.8062C13.4459 10.8941 13.3966 11.0134 13.3966 11.1377C13.3966 11.262 13.4459 11.3812 13.5339 11.4692C13.6218 11.5571 13.741 11.6064 13.8653 11.6064H16.2091V15.8252C16.2091 15.9495 16.2584 16.0687 16.3464 16.1567C16.4343 16.2446 16.5535 16.2939 16.6778 16.2939C16.8021 16.2939 16.9214 16.2446 17.0093 16.1567C17.0972 16.0687 17.1466 15.9495 17.1466 15.8252V13.4814H20.8966V15.8252C20.8966 15.9495 20.9459 16.0687 21.0339 16.1567C21.1218 16.2446 21.241 16.2939 21.3653 16.2939C21.4896 16.2939 21.6089 16.2446 21.6968 16.1567C21.7847 16.0687 21.8341 15.9495 21.8341 15.8252V11.6064H27.5898C27.7021 11.6064 27.8106 11.6467 27.8957 11.7199C27.9807 11.7931 28.0367 11.8944 28.0534 12.0054L30.7356 29.8216C30.7451 29.8881 30.7402 29.9558 30.7212 30.0202C30.7022 30.0846 30.6696 30.1442 30.6256 30.1949C30.5816 30.2456 30.5272 30.2863 30.4661 30.3141C30.4051 30.342 30.3387 30.3564 30.2716 30.3564H3.08406C3.01719 30.3564 2.9511 30.3421 2.89022 30.3145C2.82934 30.2868 2.77508 30.2465 2.73109 30.1961C2.68709 30.1458 2.65437 30.0866 2.63513 30.0226C2.61589 29.9586 2.61057 29.8911 2.61953 29.8249L5.30218 12.0054C5.3189 11.8944 5.37489 11.7931 5.45996 11.7199C5.54503 11.6467 5.65355 11.6064 5.76578 11.6064H8.24031C8.36463 11.6064 8.48386 11.5571 8.57176 11.4692C8.65967 11.3812 8.70906 11.262 8.70906 11.1377C8.70906 11.0134 8.65967 10.8941 8.57176 10.8062C8.48386 10.7183 8.36463 10.6689 8.24031 10.6689H5.76578C5.42868 10.6672 5.10233 10.7874 4.84685 11.0073C4.59136 11.2272 4.42395 11.5321 4.37546 11.8657L1.69234 29.6889C1.66387 29.8884 1.67857 30.0916 1.73545 30.2848C1.79233 30.478 1.89006 30.6568 2.02202 30.809C2.15398 30.9611 2.3171 31.0832 2.50033 31.1669C2.68356 31.2506 2.88263 31.2939 3.08406 31.2939H30.2716C30.4733 31.2939 30.6727 31.2504 30.8562 31.1665C31.0396 31.0826 31.2029 30.9602 31.3349 30.8076C31.4669 30.655 31.5644 30.4757 31.621 30.2821C31.6776 30.0884 31.6919 29.8848 31.6628 29.6852ZM21.8341 9.73145C21.8341 9.4828 21.9328 9.24435 22.1086 9.06853C22.2845 8.89272 22.5229 8.79395 22.7716 8.79395C23.0202 8.79395 23.2587 8.89272 23.4345 9.06853C23.6103 9.24435 23.7091 9.4828 23.7091 9.73145V10.6689H21.8341V9.73145Z" fill="#19A1DB"/>
<path d="M27.19 18.9453C27.0105 19.0712 26.7902 19.1248 26.573 19.0954C26.3558 19.066 26.1576 18.9558 26.0181 18.7868C25.8473 18.5905 25.6365 18.4329 25.3999 18.3246C25.1633 18.2163 24.9063 18.1597 24.6461 18.1587C24.3858 18.1599 24.1288 18.2168 23.8923 18.3253C23.6557 18.4339 23.4451 18.5917 23.2745 18.7882C23.1347 18.957 22.9362 19.0668 22.7189 19.0955C22.5016 19.1242 22.2815 19.0697 22.1026 18.9429C22.0008 18.8716 21.8748 18.8436 21.7523 18.8651C21.6299 18.8866 21.521 18.9559 21.4496 19.0578C21.3783 19.1596 21.3503 19.2856 21.3718 19.408C21.3934 19.5305 21.4627 19.6394 21.5645 19.7107C21.9312 19.9692 22.3809 20.0818 22.8262 20.0268C23.2714 19.9718 23.6802 19.753 23.9729 19.4131C24.0561 19.3154 24.1592 19.2366 24.2753 19.1819C24.3914 19.1273 24.5178 19.0981 24.6461 19.0962C24.7748 19.0982 24.9017 19.1277 25.0181 19.1828C25.1345 19.2378 25.2378 19.3172 25.3211 19.4154C25.4925 19.6113 25.7035 19.7686 25.9401 19.877C26.1768 19.9853 26.4337 20.0423 26.694 20.044C27.0634 20.0434 27.4235 19.9288 27.7253 19.7159C27.823 19.643 27.8885 19.535 27.9079 19.4147C27.9273 19.2944 27.899 19.1712 27.8292 19.0714C27.7593 18.9715 27.6533 18.9028 27.5336 18.8798C27.4139 18.8567 27.29 18.8812 27.1881 18.9481L27.19 18.9453Z" fill="#19A1DB"/>
<path d="M21.3648 22.3774C21.1045 22.3787 20.8476 22.4355 20.611 22.5441C20.3745 22.6526 20.1639 22.8105 19.9932 23.007C19.8534 23.1758 19.655 23.2855 19.4377 23.3142C19.2203 23.3429 19.0002 23.2884 18.8214 23.1617C18.7195 23.0903 18.5936 23.0623 18.4711 23.0838C18.3486 23.1054 18.2398 23.1747 18.1684 23.2765C18.097 23.3783 18.069 23.5043 18.0906 23.6268C18.1121 23.7492 18.1814 23.8581 18.2832 23.9295C18.6499 24.188 19.0997 24.3008 19.5449 24.2457C19.9902 24.1907 20.399 23.9718 20.6917 23.6318C20.7749 23.5341 20.8779 23.4553 20.994 23.4007C21.1101 23.346 21.2365 23.3168 21.3648 23.3149C21.4936 23.317 21.6204 23.3465 21.7368 23.4015C21.8533 23.4566 21.9566 23.5359 22.0398 23.6342C22.2112 23.8301 22.4222 23.9874 22.6589 24.0957C22.8955 24.2041 23.1525 24.261 23.4128 24.2628C23.7821 24.2621 24.1422 24.1476 24.444 23.9346C24.5417 23.8618 24.6072 23.7538 24.6266 23.6334C24.646 23.5131 24.6178 23.39 24.5479 23.2901C24.4781 23.1903 24.3721 23.1215 24.2524 23.0985C24.1327 23.0755 24.0088 23.1 23.9068 23.1668C23.7274 23.2927 23.5071 23.3463 23.2899 23.317C23.0727 23.2876 22.8745 23.1774 22.735 23.0084C22.5646 22.8118 22.3543 22.6538 22.118 22.545C21.8817 22.4362 21.6249 22.3791 21.3648 22.3774Z" fill="#19A1DB"/>
<path d="M26.4854 27.2243C26.3148 27.0282 26.1042 26.8707 25.8679 26.7624C25.6315 26.6541 25.3748 26.5974 25.1148 26.5962C24.8545 26.5974 24.5976 26.6543 24.361 26.7628C24.1245 26.8714 23.9139 27.0292 23.7432 27.2257C23.6035 27.3946 23.405 27.5045 23.1877 27.5331C22.9703 27.5618 22.7502 27.5073 22.5714 27.3804C22.4695 27.3091 22.3436 27.2811 22.2211 27.3026C22.0986 27.3241 21.9898 27.3934 21.9184 27.4953C21.847 27.5971 21.819 27.7231 21.8406 27.8455C21.8621 27.968 21.9314 28.0769 22.0332 28.1482C22.3999 28.4068 22.8497 28.5195 23.2949 28.4645C23.7402 28.4095 24.149 28.1906 24.4417 27.8506C24.5249 27.7529 24.6279 27.6741 24.744 27.6194C24.8601 27.5648 24.9865 27.5356 25.1148 27.5337C25.2436 27.5357 25.3704 27.5652 25.4868 27.6203C25.6033 27.6753 25.7066 27.7547 25.7898 27.8529C25.9612 28.0488 26.1722 28.2061 26.4089 28.3145C26.6455 28.4228 26.9025 28.4798 27.1628 28.4815C27.5321 28.4809 27.8922 28.3663 28.194 28.1534C28.2917 28.0805 28.3572 27.9725 28.3766 27.8522C28.396 27.7319 28.3678 27.6087 28.2979 27.5089C28.2281 27.409 28.1221 27.3403 28.0024 27.3173C27.8827 27.2942 27.7588 27.3187 27.6568 27.3856C27.4771 27.5109 27.2567 27.5639 27.0396 27.534C26.8225 27.5041 26.6246 27.3936 26.4854 27.2243Z" fill="#19A1DB"/>
<path d="M15.2354 27.2243C15.0648 27.0282 14.8542 26.8707 14.6179 26.7624C14.3815 26.6541 14.1248 26.5974 13.8648 26.5962C13.6045 26.5974 13.3476 26.6543 13.111 26.7628C12.8745 26.8714 12.6639 27.0292 12.4932 27.2257C12.3535 27.3946 12.155 27.5045 11.9377 27.5331C11.7203 27.5618 11.5002 27.5073 11.3214 27.3804C11.2195 27.3091 11.0936 27.2811 10.9711 27.3026C10.8486 27.3241 10.7398 27.3934 10.6684 27.4953C10.597 27.5971 10.569 27.7231 10.5906 27.8455C10.6121 27.968 10.6814 28.0769 10.7832 28.1482C11.1499 28.4068 11.5997 28.5195 12.0449 28.4645C12.4902 28.4095 12.899 28.1906 13.1917 27.8506C13.2749 27.7529 13.3779 27.6741 13.494 27.6194C13.6101 27.5648 13.7365 27.5356 13.8648 27.5337C13.9936 27.5357 14.1204 27.5652 14.2368 27.6203C14.3533 27.6753 14.4566 27.7547 14.5398 27.8529C14.7112 28.0488 14.9222 28.2061 15.1589 28.3145C15.3955 28.4228 15.6525 28.4798 15.9128 28.4815C16.2821 28.4809 16.6422 28.3663 16.944 28.1534C17.0417 28.0805 17.1072 27.9725 17.1266 27.8522C17.146 27.7319 17.1178 27.6087 17.0479 27.5089C16.9781 27.409 16.8721 27.3403 16.7524 27.3173C16.6327 27.2942 16.5088 27.3187 16.4068 27.3856C16.227 27.5108 16.0067 27.5637 15.7896 27.5339C15.5726 27.504 15.3747 27.3935 15.2354 27.2243Z" fill="#19A1DB"/>
<path d="M6.83447 18.1689C6.46151 18.1689 6.10383 18.3171 5.8401 18.5808C5.57638 18.8446 5.42822 19.2022 5.42822 19.5752V21.4502C5.42822 21.8232 5.57638 22.1808 5.8401 22.4446C6.10383 22.7083 6.46151 22.8564 6.83447 22.8564V23.3252C6.83447 23.4495 6.88386 23.5687 6.97177 23.6567C7.05967 23.7446 7.1789 23.7939 7.30322 23.7939C7.42754 23.7939 7.54677 23.7446 7.63468 23.6567C7.72259 23.5687 7.77197 23.4495 7.77197 23.3252V22.8564H8.70947V23.3252C8.70947 23.4495 8.75886 23.5687 8.84677 23.6567C8.93467 23.7446 9.0539 23.7939 9.17822 23.7939C9.30254 23.7939 9.42177 23.7446 9.50968 23.6567C9.59759 23.5687 9.64697 23.4495 9.64697 23.3252V22.8564H10.5845V23.3252C10.5845 23.4495 10.6339 23.5687 10.7218 23.6567C10.8097 23.7446 10.9289 23.7939 11.0532 23.7939C11.1775 23.7939 11.2968 23.7446 11.3847 23.6567C11.4726 23.5687 11.522 23.4495 11.522 23.3252V22.8564H12.4595V23.3252C12.4595 23.4495 12.5089 23.5687 12.5968 23.6567C12.6847 23.7446 12.8039 23.7939 12.9282 23.7939C13.0525 23.7939 13.1718 23.7446 13.2597 23.6567C13.3476 23.5687 13.397 23.4495 13.397 23.3252V22.8564H14.3345V23.3252C14.3345 23.4495 14.3839 23.5687 14.4718 23.6567C14.5597 23.7446 14.6789 23.7939 14.8032 23.7939C14.9275 23.7939 15.0468 23.7446 15.1347 23.6567C15.2226 23.5687 15.272 23.4495 15.272 23.3252V22.8564C15.6449 22.8564 16.0026 22.7083 16.2663 22.4446C16.5301 22.1808 16.6782 21.8232 16.6782 21.4502V19.5752C16.6782 19.2022 16.5301 18.8446 16.2663 18.5808C16.0026 18.3171 15.6449 18.1689 15.272 18.1689H12.4595V1.7627C12.4595 1.63838 12.4101 1.51915 12.3222 1.43124C12.2343 1.34333 12.115 1.29395 11.9907 1.29395H10.1157C9.9914 1.29395 9.87217 1.34333 9.78427 1.43124C9.69636 1.51915 9.64697 1.63838 9.64697 1.7627V18.1689H6.83447ZM15.7407 19.5752V21.4502C15.7407 21.5745 15.6913 21.6937 15.6034 21.7817C15.5155 21.8696 15.3963 21.9189 15.272 21.9189H6.83447C6.71015 21.9189 6.59092 21.8696 6.50302 21.7817C6.41511 21.6937 6.36572 21.5745 6.36572 21.4502V19.5752C6.36572 19.4509 6.41511 19.3316 6.50302 19.2437C6.59092 19.1558 6.71015 19.1064 6.83447 19.1064H15.272C15.3963 19.1064 15.5155 19.1558 15.6034 19.2437C15.6913 19.3316 15.7407 19.4509 15.7407 19.5752ZM10.5845 2.23145H11.522V18.1689H10.5845V2.23145Z" fill="#19A1DB"/>
</svg>
