<svg width="33" height="33" viewBox="0 0 33 33" fill="none" xmlns="http://www.w3.org/2000/svg">
<path d="M17.8719 19.0806L17.3069 19.0771H5.41334L5.28508 18.7478C5.09442 18.2555 4.9939 17.739 4.9939 17.2052C4.9939 14.8722 6.89006 12.9761 9.22301 12.9761C9.4518 12.9761 9.68058 12.9934 9.89897 13.0315C10.6235 13.1459 11.2925 13.444 11.8575 13.8982C12.2562 13.5758 12.7588 13.3921 13.2788 13.3921C14.1212 13.3921 14.8734 13.8566 15.2616 14.5741C15.4731 14.5256 15.6915 14.5013 15.9133 14.5013C17.2653 14.5013 18.4508 15.413 18.794 16.7199L18.9049 17.1393L18.5132 17.323C18.0868 17.5241 17.8234 17.9435 17.8234 18.4219C17.8234 18.4427 17.8234 18.4635 17.8234 18.4843C17.8234 18.4982 17.8234 18.5155 17.8234 18.5225L17.8719 19.0806ZM6.14477 18.0406H16.8181C16.9151 17.4825 17.2167 16.9799 17.6604 16.6367C17.3415 15.9781 16.6656 15.5447 15.9133 15.5447C15.6533 15.5447 15.3968 15.5967 15.1576 15.6973L14.603 15.933L14.4539 15.3471C14.3153 14.8098 13.8334 14.4355 13.2788 14.4355C12.8871 14.4355 12.5335 14.6157 12.3012 14.9312L11.9373 15.4234L11.5109 14.9832C11.029 14.4875 10.4155 14.1685 9.73605 14.0576C9.56966 14.0299 9.39633 14.016 9.22648 14.016C7.46897 14.016 6.03731 15.4477 6.03731 17.2052C6.03384 17.4894 6.07197 17.7702 6.14477 18.0406Z" fill="#19A1DB"/>
<path d="M14.8976 17.2156L14.1523 16.4911C14.3742 16.2623 14.4955 15.9642 14.4955 15.6453C14.4955 15.5413 14.4817 15.4408 14.4574 15.3437L15.4627 15.0837C15.5112 15.2675 15.532 15.4547 15.532 15.6453C15.532 16.2346 15.3067 16.7927 14.8976 17.2156Z" fill="#19A1DB"/>
<path d="M12.0656 15.6486H11.0256C11.0256 15.1633 11.1782 14.7022 11.4624 14.314L11.8819 14.6225H12.4018V14.7923L12.3013 14.931C12.1488 15.139 12.0656 15.3851 12.0656 15.6486Z" fill="#19A1DB"/>
<path d="M23.7371 16.7303C23.6678 16.6367 23.5881 16.55 23.5014 16.4703C23.4459 16.4183 23.3905 16.3732 23.3315 16.3316L23.9451 15.4893C24.0352 15.5551 24.1254 15.6279 24.2086 15.7042C24.3403 15.8255 24.4616 15.9607 24.5691 16.1028L23.7371 16.7303Z" fill="#19A1DB"/>
<path d="M18.3053 24.3114C18.2949 24.3114 18.2845 24.3114 18.2741 24.3114C17.4491 24.2941 16.78 23.6112 16.78 22.7862L16.787 18.5744C16.7835 18.5258 16.787 18.4842 16.787 18.4496C16.787 18.4392 16.787 18.4288 16.787 18.4184C16.787 17.5518 17.2896 16.751 18.073 16.3801C18.3746 16.238 18.7005 16.1652 19.0367 16.1652C19.262 16.1652 19.4839 16.1998 19.6988 16.2657C20.243 15.4337 21.1755 14.9172 22.1912 14.9172C22.7147 14.9172 23.2208 15.0524 23.6679 15.3089C24.1914 15.0559 24.7529 14.9276 25.3422 14.9276C27.3667 14.9276 29.0549 16.5084 29.1866 18.5258L29.2212 19.0805H22.0387C22.0352 19.0805 22.0352 19.0805 22.0318 19.0805C22.0248 19.0805 22.0144 19.0909 22.0144 19.1048V20.6404C22.0144 21.4654 21.4078 22.1587 20.6001 22.2558C20.3366 22.287 20.0732 22.2558 19.8305 22.1622V22.7654C19.8305 23.1813 19.6607 23.5869 19.3626 23.8781C19.0748 24.1589 18.7005 24.3114 18.3053 24.3114ZM19.0332 17.2086C18.853 17.2086 18.6762 17.2467 18.5167 17.323C18.0904 17.524 17.8269 17.9435 17.8269 18.4219C17.8269 18.4427 17.8269 18.4635 17.8269 18.4842C17.8269 18.4981 17.8269 18.5154 17.8269 18.5224L17.8304 18.5432V18.5744L17.8234 22.7931C17.8234 23.0531 18.0349 23.2715 18.2983 23.2784C18.4231 23.2819 18.5445 23.2333 18.6381 23.1397C18.7386 23.0427 18.7941 22.9075 18.7941 22.7688V20.6577H19.834C19.834 20.8207 19.9033 20.9767 20.0281 21.0876C20.1529 21.1985 20.3124 21.247 20.4788 21.2262C20.763 21.1916 20.9779 20.942 20.9779 20.6439V19.1082C20.9779 18.609 21.3315 18.1723 21.8203 18.0683C21.8931 18.0509 21.9694 18.044 22.0422 18.044H28.0565C27.7307 16.8481 26.6283 15.971 25.3422 15.971C24.902 15.971 24.4826 16.0681 24.0908 16.2657C24.0284 16.2969 23.9695 16.3281 23.9106 16.3628L23.6159 16.5396L23.3386 16.335C23.0058 16.0924 22.6107 15.9606 22.1947 15.9606C21.4147 15.9606 20.7145 16.4217 20.4094 17.1393L20.1737 17.687L19.6607 17.3784C19.47 17.2675 19.2551 17.2086 19.0332 17.2086Z" fill="#19A1DB"/>
<path d="M23.8376 29.7954H9.53146C7.70462 29.7954 5.98178 29.0848 4.68878 27.7953C3.39578 26.5057 2.67822 24.7864 2.67129 22.9595L2.66089 20.3597L3.70083 20.3562L3.71123 22.9561C3.72163 26.1556 6.3319 28.759 9.53146 28.759H23.8376C25.3941 28.759 26.8604 28.1523 27.9593 27.05C29.0582 25.9476 29.6613 24.4813 29.6579 22.9249L29.6475 20.3631L30.6874 20.3597L30.6978 22.9214C30.7048 24.7586 29.9907 26.4849 28.6977 27.7849C27.3977 29.0813 25.6749 29.7954 23.8376 29.7954Z" fill="#19A1DB"/>
<path d="M17.8233 20.8762H2.86545C2.4876 20.8762 2.13402 20.7306 1.8671 20.4637C1.60018 20.1967 1.45459 19.8431 1.45459 19.4653C1.45459 18.6853 2.08896 18.0544 2.86545 18.0544H17.8268L17.8233 20.8762ZM2.86545 19.0909C2.66093 19.0909 2.49454 19.2573 2.49454 19.4618C2.49454 19.5624 2.53267 19.656 2.602 19.7253C2.67133 19.7946 2.76492 19.8327 2.86545 19.8327H16.7834V19.0875H2.86545V19.0909Z" fill="#19A1DB"/>
<path d="M30.4933 20.8762H20.9744V19.1048C20.9744 18.6056 21.3279 18.1688 21.8167 18.0648L21.8687 18.0544H30.4899C30.8642 18.0544 31.2178 18.2 31.4813 18.4635C31.7482 18.7269 31.8973 19.0805 31.9007 19.4549C31.9042 19.8362 31.7586 20.1933 31.4917 20.4637C31.2282 20.7271 30.8746 20.8762 30.4933 20.8762ZM22.0143 19.8362H30.4899C30.5904 19.8362 30.684 19.7981 30.7533 19.7253C30.8226 19.6525 30.8608 19.5589 30.8608 19.4584C30.8608 19.3613 30.8192 19.2677 30.7499 19.1984C30.6805 19.1291 30.5869 19.0909 30.4899 19.0909H22.0178C22.0143 19.0944 22.0143 19.0979 22.0143 19.1048V19.8362Z" fill="#19A1DB"/>
<path d="M9.09929 28.9864L7.95361 30.6973L8.8177 31.2759L9.96338 29.565L9.09929 28.9864Z" fill="#19A1DB"/>
<path d="M24.2552 28.9632L23.4214 29.5847L24.6954 31.2941L25.5292 30.6726L24.2552 28.9632Z" fill="#19A1DB"/>
<path d="M3.70083 18.5708H2.66089V5.37041C2.66089 4.18487 3.62457 3.22119 4.81011 3.22119C5.38555 3.22119 5.92285 3.44651 6.32843 3.85209L7.98888 5.51254L7.25398 6.24743L5.59353 4.58699C5.38555 4.379 5.10476 4.26114 4.81011 4.26114C4.19654 4.26114 3.70083 4.76031 3.70083 5.37041V18.5708Z" fill="#19A1DB"/>
<path d="M7.50715 9.19056L6.58507 8.26847C6.29735 7.98075 6.14136 7.59944 6.14136 7.19386C6.14136 6.78828 6.30082 6.40697 6.58507 6.11925L7.61461 5.08971C7.90233 4.80199 8.28365 4.646 8.68922 4.646C9.0948 4.646 9.47612 4.80545 9.76383 5.08971L10.6859 6.01179L7.50715 9.19056ZM8.68922 5.68247C8.56096 5.68247 8.43964 5.73101 8.34951 5.8246L7.31996 6.85415C7.22983 6.94428 7.17784 7.0656 7.17784 7.19386C7.17784 7.32212 7.22637 7.44345 7.31996 7.53358L7.50715 7.72077L9.21613 6.01179L9.02894 5.8246C8.93881 5.73101 8.81748 5.68247 8.68922 5.68247Z" fill="#19A1DB"/>
<path d="M10.2002 5.02443L6.521 8.70361L7.25634 9.43896L10.9355 5.75978L10.2002 5.02443Z" fill="#19A1DB"/>
<path d="M25.935 7.05524L24.0007 5.68252L27.1136 1.29395L27.9629 1.89365L25.4532 5.43639L25.6889 5.60625L28.1882 2.07737L29.0375 2.67707L25.935 7.05524Z" fill="#19A1DB"/>
<path d="M26.4411 9.14907L21.855 5.89751L23.193 4.7397C23.5328 4.44852 24.0215 4.42425 24.389 4.68077L26.7566 6.35855C27.124 6.61854 27.2627 7.08998 27.0963 7.50942L26.4411 9.14907ZM23.5362 5.81431L25.9628 7.53715L26.1049 7.17664L23.8274 5.56126L23.5362 5.81431Z" fill="#19A1DB"/>
<path d="M24.9504 13.7248C23.1755 13.7248 21.1996 12.9795 19.9344 12.0817C19.8512 12.0228 19.768 11.9604 19.6882 11.898L19.2099 11.5271L19.2272 11.5097L19.1267 11.4161C18.1283 10.4594 17.442 9.23919 17.1404 7.88379L16.9844 7.18703L17.6985 7.25289C20.0106 7.47128 22.3262 5.48152 22.347 5.46418L22.6555 5.19727L22.9883 5.43299L26.7841 8.12298L26.7009 8.46616C26.694 8.49389 26.0631 11.17 26.5172 12.9657L26.6489 13.4822L26.129 13.6C25.758 13.6867 25.3594 13.7248 24.9504 13.7248ZM20.801 11.4092C22.1806 12.2932 24.0213 12.7889 25.401 12.6606C25.1687 11.1111 25.4669 9.31198 25.6194 8.56669L22.711 6.50413C22.0142 7.0345 20.281 8.19578 18.3398 8.29977C18.6067 9.07973 19.0331 9.79383 19.5946 10.4005C19.9274 10.2167 20.4613 9.88742 20.9292 9.45411L23.2899 7.25289L21.7404 10.085C21.7231 10.1197 21.3729 10.754 20.801 11.4092Z" fill="#19A1DB"/>
<path d="M20.3608 11.8703L20.0593 11.5444L19.9241 11.4092C19.7993 11.4751 19.723 11.5098 19.7091 11.5132L19.2793 10.5669C19.2862 10.5634 20.1944 10.144 20.9328 9.45415L23.2935 7.25293L21.7405 10.085C21.7197 10.1266 21.1963 11.073 20.3747 11.8564L20.3608 11.8703Z" fill="#19A1DB"/>
<path d="M11.1561 9.07928L10.4626 9.85425L11.1214 10.4437L11.8148 9.6687L11.1561 9.07928Z" fill="#19A1DB"/>
<path d="M10.0039 7.92554L9.26855 8.66089L9.9034 9.29574L10.6387 8.56039L10.0039 7.92554Z" fill="#19A1DB"/>
<path d="M12.1592 7.21535L11.853 8.20923L12.6481 8.45416L12.9543 7.46028L12.1592 7.21535Z" fill="#19A1DB"/>
<path d="M10.5899 6.71317L10.2581 7.69873L11.1023 7.98301L11.4342 6.99746L10.5899 6.71317Z" fill="#19A1DB"/>
<path d="M9.46599 10.369L8.47534 10.6853L8.73053 11.4844L9.72118 11.1681L9.46599 10.369Z" fill="#19A1DB"/>
<path d="M9.02145 8.78992L8.01904 9.06665L8.24412 9.88194L9.24652 9.60521L9.02145 8.78992Z" fill="#19A1DB"/>
<path d="M15.6151 5.03785C14.8976 5.03785 14.3152 4.45548 14.3152 3.73792C14.3152 3.02036 14.8976 2.43799 15.6151 2.43799C16.3327 2.43799 16.915 3.02036 16.915 3.73792C16.915 4.45548 16.3327 5.03785 15.6151 5.03785ZM15.6151 3.47447C15.4695 3.47447 15.3551 3.59233 15.3551 3.73445C15.3551 3.87658 15.473 3.99444 15.6151 3.99444C15.7607 3.99444 15.8751 3.87658 15.8751 3.73445C15.8751 3.59233 15.7607 3.47447 15.6151 3.47447Z" fill="#19A1DB"/>
<path d="M29.9733 10.0294C29.4464 10.0294 29.02 9.60299 29.02 9.07609C29.02 8.54918 29.4464 8.1228 29.9733 8.1228C30.5002 8.1228 30.9266 8.54918 30.9266 9.07609C30.9266 9.60299 30.5002 10.0294 29.9733 10.0294ZM29.9733 8.98942C29.9248 8.98942 29.8866 9.02756 29.8866 9.07609C29.8866 9.12462 29.9248 9.16275 29.9733 9.16275C30.0218 9.16275 30.06 9.12462 30.06 9.07609C30.06 9.02756 30.0218 8.98942 29.9733 8.98942Z" fill="#19A1DB"/>
</svg>
