<svg width="33" height="33" viewBox="0 0 33 33" fill="none" xmlns="http://www.w3.org/2000/svg">
<path d="M5.23854 31.2421C5.16833 31.2421 5.09675 31.2203 5.03607 31.1753C4.88473 31.0635 4.85269 30.8501 4.96518 30.6987C4.98699 30.6688 6.54538 28.5118 5.55349 26.7489C5.46146 26.5846 5.51941 26.3767 5.6837 26.2847C5.84799 26.1926 6.05591 26.2506 6.14794 26.4149C7.35934 28.5684 5.58962 31.0021 5.51327 31.1044C5.44578 31.1943 5.34284 31.2421 5.23854 31.2421Z" fill="#19A1DB"/>
<path d="M12.3342 31.2421C12.2299 31.2421 12.127 31.1943 12.0602 31.1044C11.9845 31.0021 10.2141 28.5684 11.4255 26.4149C11.5176 26.2506 11.7255 26.1926 11.8898 26.2847C12.0541 26.3767 12.112 26.5846 12.02 26.7489C11.0226 28.5214 12.5919 30.6769 12.6083 30.6987C12.7201 30.8501 12.6887 31.0635 12.5374 31.1753C12.4754 31.2203 12.4045 31.2421 12.3342 31.2421Z" fill="#19A1DB"/>
<path d="M7.42116 31.2421C7.38162 31.2421 7.34208 31.2353 7.30254 31.221C7.12598 31.1555 7.03599 30.9599 7.10144 30.7833C7.10962 30.7608 7.91949 28.5262 7.39866 26.674C7.34753 26.4926 7.4532 26.3045 7.63453 26.2534C7.81587 26.2022 8.00402 26.3079 8.05515 26.4892C8.63733 28.5575 7.77769 30.9197 7.74088 31.0192C7.68975 31.1569 7.55955 31.2421 7.42116 31.2421Z" fill="#19A1DB"/>
<path d="M10.1533 31.2422C10.0149 31.2422 9.88467 31.1569 9.83354 31.0199C9.79673 30.9204 8.93777 28.5583 9.51927 26.49C9.5704 26.3086 9.75855 26.203 9.93988 26.2541C10.1212 26.3052 10.2269 26.4934 10.1758 26.6747C9.65493 28.5269 10.4648 30.7616 10.473 30.7841C10.5384 30.9606 10.4478 31.1563 10.2712 31.2217C10.2323 31.2353 10.1928 31.2422 10.1533 31.2422Z" fill="#19A1DB"/>
<path d="M14.6469 31.2421H2.92759C2.77284 31.2421 2.63718 31.1378 2.59764 30.9878C2.5581 30.8379 2.62559 30.6804 2.76057 30.604C3.6502 30.1044 4.05173 28.5098 3.97742 27.263C3.77223 23.8013 6.46158 22.4085 6.5761 22.3506C6.62382 22.3267 6.67631 22.3145 6.72949 22.3145H10.845C10.8981 22.3145 10.9506 22.3267 10.9984 22.3506C11.1129 22.4085 13.8022 23.8006 13.597 27.263C13.5234 28.5098 13.9249 30.1044 14.8139 30.604C14.9489 30.6797 15.0157 30.8372 14.9768 30.9878C14.9373 31.1371 14.8016 31.2421 14.6469 31.2421ZM3.80836 30.5604H13.7654C13.1021 29.6871 12.8499 28.3319 12.916 27.2228C13.0789 24.468 11.1545 23.2225 10.7584 22.9962H6.81606C6.42204 23.2211 4.49484 24.4666 4.65845 27.2228C4.7239 28.3319 4.47166 29.6871 3.80836 30.5604Z" fill="#19A1DB"/>
<path d="M9.75115 21.1052H7.82328C7.63512 21.1052 7.48242 20.9525 7.48242 20.7643V5.79398C7.48242 5.60583 7.63512 5.45312 7.82328 5.45312H9.75115C9.9393 5.45312 10.092 5.60583 10.092 5.79398V20.7643C10.092 20.9525 9.9393 21.1052 9.75115 21.1052ZM8.16345 20.4235H9.40962V6.13483H8.16345V20.4235Z" fill="#19A1DB"/>
<path d="M10.012 6.13477H7.564C7.37585 6.13477 7.22314 5.98206 7.22314 5.79391V2.85847C7.22314 1.99542 7.92531 1.29395 8.78835 1.29395C9.65139 1.29395 10.3529 1.99611 10.3529 2.85847V5.79391C10.3529 5.98206 10.2002 6.13477 10.012 6.13477ZM7.90485 5.45306H9.67116V2.85779C9.67116 2.37105 9.27509 1.97497 8.78835 1.97497C8.30161 1.97497 7.90554 2.37105 7.90485 2.85779V5.45306Z" fill="#19A1DB"/>
<path d="M10.732 22.9956H6.83939C6.65124 22.9956 6.49854 22.8429 6.49854 22.6548V20.7637C6.49854 20.5756 6.65124 20.4229 6.83939 20.4229H10.732C10.9201 20.4229 11.0728 20.5756 11.0728 20.7637V22.6548C11.0728 22.8429 10.9201 22.9956 10.732 22.9956ZM7.18093 22.3139H10.3918V21.1046H7.18093V22.3139Z" fill="#19A1DB"/>
<path d="M26.7802 31.2939H16.8674C16.1012 31.2939 15.4645 30.7274 15.3861 29.9761L14.2231 18.8452C14.2033 18.6577 14.3397 18.49 14.5265 18.4709C14.7139 18.4511 14.8816 18.5875 14.9007 18.7743L16.0637 29.9052C16.106 30.3081 16.4509 30.6122 16.8674 30.6122H26.7802C27.196 30.6122 27.5417 30.3081 27.5839 29.9052L28.7469 18.7743C28.7667 18.5868 28.9344 18.4511 29.1212 18.4709C29.3087 18.4907 29.4443 18.6584 29.4245 18.8452L28.2615 29.9761C28.1832 30.7274 27.5464 31.2939 26.7802 31.2939Z" fill="#19A1DB"/>
<path d="M30.4278 19.1513H13.2207C13.0326 19.1513 12.8799 18.9986 12.8799 18.8105V16.2786C12.8799 16.0904 13.0326 15.9377 13.2207 15.9377H30.4278C30.6159 15.9377 30.7686 16.0904 30.7686 16.2786V18.8105C30.7686 18.9986 30.6159 19.1513 30.4278 19.1513ZM13.5616 18.4696H30.0869V16.6195H13.5616V18.4696Z" fill="#19A1DB"/>
<path d="M26.8956 16.6189C26.7204 16.6189 26.5718 16.4853 26.5561 16.3073C26.46 15.1989 25.9725 14.1538 25.1831 13.3644C24.286 12.4673 23.093 11.973 21.8243 11.973C20.5557 11.973 19.3627 12.4673 18.4655 13.3644C17.6761 14.1538 17.1887 15.1989 17.0926 16.3073C17.0762 16.4948 16.9106 16.6339 16.7238 16.6175C16.5363 16.6011 16.3972 16.4362 16.4136 16.2487C16.5234 14.9807 17.081 13.7857 17.9843 12.8831C19.0102 11.8571 20.3743 11.292 21.825 11.292C23.2757 11.292 24.6398 11.8571 25.6658 12.8831C26.5683 13.7857 27.126 14.9814 27.2364 16.2487C27.2528 16.4362 27.1137 16.6011 26.9262 16.6175C26.9153 16.6189 26.9058 16.6189 26.8956 16.6189ZM15.3351 16.6189C15.3276 16.6189 15.3195 16.6189 15.312 16.6182C15.1238 16.6052 14.982 16.443 14.995 16.2548C15.1068 14.6065 15.813 13.0535 16.9842 11.8824C18.2774 10.5891 19.9967 9.87744 21.825 9.87744C23.6534 9.87744 25.3726 10.5898 26.6658 11.8824C27.837 13.0535 28.5439 14.6065 28.6551 16.2548C28.668 16.443 28.5255 16.6052 28.3381 16.6182C28.1492 16.6311 27.9877 16.4887 27.9747 16.3012C27.8745 14.8178 27.2385 13.4196 26.1832 12.365C25.0188 11.2006 23.4707 10.5592 21.8243 10.5592C20.178 10.5592 18.6298 11.2006 17.4655 12.365C16.4109 13.4196 15.7748 14.8178 15.6746 16.3012C15.6624 16.4812 15.5124 16.6189 15.3351 16.6189Z" fill="#19A1DB"/>
</svg>
