<svg width="31" height="31" viewBox="0 0 31 31" fill="none" xmlns="http://www.w3.org/2000/svg">
<path d="M11.3229 10.9877V10.4551C11.3229 9.82433 10.9183 9.28651 10.3552 9.08673V7.37667L7.67856 4.16479H6.25755L3.58096 7.37673V9.08679C3.01779 9.28657 2.61322 9.82439 2.61322 10.4552V10.9877C1.51029 11.2125 0.677734 12.19 0.677734 13.3583V27.8745C0.677734 29.2085 1.76306 30.2938 3.09709 30.2938H10.839C12.1731 30.2938 13.2584 29.2085 13.2584 27.8745V13.3583C13.2584 12.19 12.4258 11.2125 11.3229 10.9877ZM9.38741 8.03576V9.0035H4.5487V8.03576H9.38741ZM6.48419 9.97125V10.939H5.51644V9.97125H6.48419ZM7.45193 9.97125H8.41967V10.939H7.45193V9.97125ZM9.38741 9.97125H9.87128C10.1381 9.97125 10.3552 10.1883 10.3552 10.4551V10.939H9.38741V9.97125ZM6.71082 5.13254H7.2253L8.83822 7.06802H5.0979L6.71082 5.13254ZM4.06483 9.97125H4.5487V10.939H3.58096V10.4551C3.58096 10.1883 3.79804 9.97125 4.06483 9.97125ZM12.2906 27.8745C12.2906 28.6749 11.6394 29.3261 10.839 29.3261H3.09709C2.29671 29.3261 1.64548 28.6749 1.64548 27.8745V13.3583C1.64548 12.558 2.29671 11.9067 3.09709 11.9067H10.839C11.6394 11.9067 12.2906 12.558 12.2906 13.3583V27.8745Z" fill="#19A1DB"/>
<path d="M2.61328 28.3584H6.00038H7.93586H11.323V12.8745H2.61328V28.3584ZM6.00038 27.3906H3.58102V20.2468L5.21747 16.974C5.28794 16.8331 5.42959 16.7455 5.58709 16.7455C5.815 16.7455 6.00038 16.9309 6.00038 17.1588C6.00038 17.4469 5.93227 17.7352 5.8035 17.9928L4.67203 20.2557C4.59141 20.4172 4.54877 20.5977 4.54877 20.7781V20.9C4.54877 21.544 5.0728 22.0681 5.71689 22.0681C6.02893 22.0681 6.32227 21.9465 6.54292 21.726L7.49348 20.7754C7.59594 20.6729 7.73215 20.6164 7.87713 20.6164C8.17629 20.6164 8.41973 20.8598 8.41973 21.159C8.41973 21.5954 8.22975 22.0084 7.89854 22.2923L5.43304 24.4055C5.17858 24.6237 5.03264 24.941 5.03264 25.2762C5.03264 25.9085 5.54705 26.4229 6.17935 26.4229H7.93586C8.20266 26.4229 8.41973 26.64 8.41973 26.9068C8.41973 27.1736 8.20266 27.3906 7.93586 27.3906H6.00038ZM10.3552 13.8423V27.3906H9.30425C9.35796 27.2392 9.38748 27.0764 9.38748 26.9068C9.38748 26.1064 8.73625 25.4552 7.93586 25.4552H6.17935C6.08064 25.4552 6.00038 25.3749 6.00038 25.2762C6.00038 25.2239 6.02318 25.1743 6.06286 25.1403L8.5283 23.0271C9.07429 22.5591 9.38748 21.8783 9.38748 21.159C9.38748 20.3262 8.70993 19.6487 7.87713 19.6487C7.4737 19.6487 7.09447 19.8058 6.80917 20.091L5.8586 21.0416C5.82135 21.0789 5.76969 21.1003 5.71689 21.1003C5.60639 21.1003 5.51651 21.0104 5.51651 20.8999V20.778C5.51651 20.747 5.52383 20.7161 5.53768 20.6884L6.66909 18.4256C6.86469 18.0344 6.96812 17.5963 6.96812 17.1588C6.96812 16.3973 6.34858 15.7777 5.58709 15.7777C5.06064 15.7777 4.58735 16.0702 4.35189 16.5411L3.58102 18.0828V13.8423H10.3552Z" fill="#19A1DB"/>
<path d="M20.0325 5.13265H22.9357V0.293945H12.2905V5.13265H15.1938V8.03588H16.1615V30.2939H19.0647V8.03588H20.0325V5.13265ZM13.2583 1.26169H21.9679V4.16491H13.2583V1.26169ZM18.097 29.3262H17.1292V8.03588H18.097V29.3262ZM16.1615 7.06814V5.13265H19.0647V7.06814H16.1615Z" fill="#19A1DB"/>
<path d="M28.2586 17.7133H27.7747V16.7455C28.3083 16.7455 28.7425 16.3114 28.7425 15.7778V14.81C28.7425 14.2764 28.3083 13.8423 27.7747 13.8423H24.8715C24.3379 13.8423 23.9037 14.2764 23.9037 14.81V15.7778C23.9037 16.3114 24.3379 16.7455 24.8715 16.7455V17.7133H24.3876C23.0536 17.7133 21.9683 18.7986 21.9683 20.1326V27.8745C21.9683 29.2086 23.0536 30.2939 24.3876 30.2939H28.2586C29.5926 30.2939 30.6779 29.2086 30.6779 27.8745V20.1326C30.6779 18.7986 29.5926 17.7133 28.2586 17.7133ZM24.8715 14.81H27.7747L27.7753 15.7778C27.7753 15.7778 27.7751 15.7778 27.7747 15.7778H24.8715V14.81ZM25.8392 16.7455H26.807V17.7133H25.8392V16.7455ZM29.7102 27.8745C29.7102 28.6749 29.059 29.3262 28.2586 29.3262H24.3876C23.5872 29.3262 22.936 28.6749 22.936 27.8745V20.1326C22.936 19.3322 23.5872 18.681 24.3876 18.681H28.2586C29.059 18.681 29.7102 19.3322 29.7102 20.1326V27.8745Z" fill="#19A1DB"/>
</svg>
