<svg width="20" height="30" viewBox="0 0 20 30" fill="none" xmlns="http://www.w3.org/2000/svg">
<path d="M7.47384 28.1414L6.42928 19.7863V17.3932C6.86988 17.5379 7.44841 17.6771 8.03629 17.6771C9.41161 17.6771 10.7267 16.4237 11.7378 14.1443C11.8289 13.9381 11.782 13.6957 11.6173 13.5403C11.5155 13.4439 11.3829 13.393 11.249 13.393V10.179H12.3203C12.6163 10.179 12.856 9.93929 12.856 9.64333C12.856 9.34738 12.6163 9.10767 12.3203 9.10767H9.10634C8.81038 9.10767 8.57067 9.34738 8.57067 9.64333C8.57067 9.93929 8.81038 10.179 9.10634 10.179H10.1777V13.8644L8.06983 14.9197C7.63327 14.6438 6.7628 14.1215 5.86688 13.7666C6.21506 13.3863 6.42933 12.8774 6.42933 12.3217C6.42933 11.1405 5.4678 10.179 4.28665 10.179C3.10551 10.179 2.14398 11.1405 2.14398 12.3217C2.14398 12.8493 2.33548 13.3314 2.65153 13.7037C1.79313 14.0733 1.14364 14.7724 0.71243 15.7955C0.219615 16.9646 0 18.5354 0 20.8909C0 21.14 0.170073 21.3543 0.412456 21.4132C0.653505 21.4694 0.902597 21.3543 1.01508 21.132L2.14268 18.8768V19.7767L0.543691 29.3759C0.516907 29.5313 0.56244 29.6906 0.664216 29.8098C0.765994 29.9303 0.915981 30 1.07266 30H3.75101C3.93581 30 4.10991 29.9036 4.20632 29.7455C4.30408 29.5875 4.31345 29.3906 4.23042 29.2246L3.77244 28.3086L4.2465 25.4669L4.82769 29.5393C4.86519 29.8031 5.09151 30 5.35802 30H8.03636C8.25331 30 8.44882 29.8688 8.53185 29.6692C8.61488 29.4684 8.56935 29.238 8.41668 29.0854L7.47524 28.1439L7.47384 28.1414ZM3.21523 12.3206C3.21523 11.73 3.69598 11.2492 4.28657 11.2492C4.87716 11.2492 5.35791 11.73 5.35791 12.3206C5.35791 12.9112 4.87716 13.3919 4.28657 13.3919C3.69598 13.3919 3.21523 12.9112 3.21523 12.3206ZM5.82261 28.9265L4.81689 21.8879C4.77939 21.6254 4.55709 21.4312 4.29195 21.4272H4.2866C4.02412 21.4272 3.8018 21.616 3.75895 21.8745L2.68761 28.3025C2.66886 28.415 2.68627 28.5288 2.73716 28.6293L2.88447 28.9252H1.706L3.20855 19.9071C3.2139 19.8777 3.21658 19.8482 3.21658 19.8187V16.6047C3.21658 16.3556 3.04651 16.1414 2.80413 16.0825C2.56308 16.0262 2.31398 16.1414 2.2015 16.3637L1.19043 18.3858C1.29087 17.4912 1.45827 16.7842 1.702 16.2083C2.20418 15.0164 3.02511 14.4607 4.28929 14.4607C5.27225 14.4607 7.11227 15.5548 7.73883 15.9766C7.89953 16.0838 8.10575 16.0972 8.27851 16.0114L9.96587 15.1678C9.33915 16.0865 8.66151 16.6034 8.04014 16.6034C7.11344 16.6034 6.14656 16.1293 6.13717 16.124C5.97111 16.0409 5.77425 16.049 5.61624 16.1481C5.45822 16.2458 5.3618 16.4186 5.3618 16.6034V19.8174C5.3618 19.8388 5.36314 19.8616 5.36581 19.8843L6.43715 28.455C6.45188 28.5729 6.50545 28.6827 6.58982 28.7684L6.7465 28.9251H5.82515L5.82261 28.9265Z" fill="#19A1DB"/>
<path d="M18.7492 0H3.75051C3.45456 0 3.21484 0.239712 3.21484 0.535669V9.10637C3.21484 9.40233 3.45456 9.64204 3.75051 9.64204C4.04647 9.64204 4.28618 9.40233 4.28618 9.10637V1.07117H18.2136V21.9624H8.03569C7.73974 21.9624 7.50002 22.2021 7.50002 22.4981C7.50002 22.794 7.73974 23.0338 8.03569 23.0338H18.7491C19.045 23.0338 19.2847 22.794 19.2847 22.4981V0.53584C19.2847 0.239884 19.0452 0 18.7492 0Z" fill="#19A1DB"/>
<path d="M9.10793 8.5707C9.40389 8.5707 9.6436 8.33099 9.6436 8.03503V5.89236C9.6436 5.5964 9.40389 5.35669 9.10793 5.35669C8.81198 5.35669 8.57227 5.5964 8.57227 5.89236V8.03503C8.57227 8.33099 8.81198 8.5707 9.10793 8.5707Z" fill="#19A1DB"/>
<path d="M11.251 8.03528V4.28542C11.251 3.98947 11.0113 3.74976 10.7154 3.74976C10.4194 3.74976 10.1797 3.98947 10.1797 4.28542V8.03528C10.1797 8.33123 10.4194 8.57095 10.7154 8.57095C11.0113 8.57095 11.251 8.33123 11.251 8.03528Z" fill="#19A1DB"/>
<path d="M12.8565 8.03528V5.8926C12.8565 5.59665 12.6168 5.35693 12.3208 5.35693C12.0249 5.35693 11.7852 5.59665 11.7852 5.8926V8.03528C11.7852 8.33123 12.0249 8.57095 12.3208 8.57095C12.6168 8.57095 12.8565 8.33123 12.8565 8.03528Z" fill="#19A1DB"/>
</svg>
