<svg width="33" height="33" viewBox="0 0 33 33" fill="none" xmlns="http://www.w3.org/2000/svg">
<path d="M27.5403 9.83658C27.5088 9.77378 27.4653 9.71779 27.4122 9.67182C27.3591 9.62585 27.2975 9.59081 27.2308 9.5687C27.1642 9.54658 27.0938 9.53783 27.0237 9.54294C26.9537 9.54806 26.8854 9.56693 26.8226 9.5985L24.717 10.6542C24.5017 10.7621 24.2668 10.8253 24.0264 10.8401C23.7861 10.8548 23.5452 10.8206 23.3184 10.7397C23.0915 10.6589 22.8834 10.5329 22.7066 10.3694C22.5298 10.2059 22.3879 10.0083 22.2895 9.78852L20.4039 5.57674C20.3066 5.35932 20.2539 5.12462 20.2487 4.88649C20.2436 4.64835 20.2862 4.4116 20.3741 4.1902C20.4619 3.9688 20.5932 3.76722 20.7602 3.59736C20.9271 3.4275 21.1264 3.29279 21.3463 3.20118L23.4571 2.32196C23.522 2.29502 23.5809 2.25556 23.6305 2.20585C23.6801 2.15613 23.7194 2.09713 23.7462 2.03221C23.773 1.96729 23.7867 1.89774 23.7866 1.82751C23.7865 1.75729 23.7725 1.68778 23.7455 1.62295C23.7185 1.55812 23.679 1.49925 23.6292 1.4497C23.5795 1.40015 23.5205 1.36089 23.4555 1.33416C23.3906 1.30744 23.321 1.29377 23.2508 1.29395C23.1806 1.29412 23.1111 1.30814 23.0463 1.33518L20.9354 2.21438C20.4555 2.40783 20.0392 2.73142 19.7334 3.1487C19.4275 3.56599 19.2443 4.06039 19.2043 4.57621C18.9466 4.73323 18.6408 4.79171 18.3434 4.74084C16.478 4.38927 14.5904 4.16806 12.6943 4.07883C12.2104 4.04095 11.729 4.17887 11.3386 4.46728C9.42358 6.03201 7.10073 8.69056 6.85717 11.0348L6.71516 12.4116C6.63032 13.2365 6.54548 14.0614 6.4716 14.7548C6.45228 14.9421 6.47179 15.1315 6.52892 15.311C6.58606 15.4904 6.67958 15.6562 6.80366 15.7979C7.04048 16.0655 7.37064 16.2323 7.7265 16.2643C7.57766 16.7105 7.50175 17.1779 7.50171 17.6483C7.50171 17.7715 7.50739 17.8925 7.51649 18.0118C7.36516 18.0835 7.22496 18.1766 7.10021 18.2884L6.90155 18.4675C6.76763 18.587 6.65562 18.6878 6.56453 18.787C6.52198 18.8335 6.47734 18.8752 6.43166 18.9191C6.30443 19.0363 6.18684 19.1636 6.08002 19.2997C5.94559 19.4923 5.85043 19.7096 5.8 19.939C5.74956 20.1684 5.74483 20.4056 5.78608 20.6368L5.79784 20.747C5.82777 21.0411 5.89905 21.3295 6.00956 21.6037C6.22827 22.2381 6.57578 22.8204 7.03027 23.3141C7.25814 23.5595 7.55086 23.7352 7.87451 23.821V24.2837C7.87454 24.3845 7.90304 24.4834 7.95674 24.5687L8.2499 25.0339L8.24572 25.4574C8.24489 25.5436 8.26494 25.6288 8.30417 25.7056C8.3434 25.7825 8.40065 25.8486 8.47101 25.8985L8.69578 26.0583L8.51748 26.1585C8.43504 26.2052 8.36645 26.2729 8.31871 26.3547C8.27097 26.4365 8.24578 26.5295 8.24572 26.6243V27.4137C8.24574 27.5003 8.26677 27.5856 8.30701 27.6622C8.34725 27.7389 8.4055 27.8046 8.47676 27.8538C8.38035 27.9536 8.32643 28.0868 8.32639 28.2255V28.7273C8.32645 28.8101 8.3457 28.8917 8.38261 28.9658C8.41952 29.0399 8.4731 29.1045 8.53915 29.1544L8.60544 29.2045L8.52765 29.2661C8.46488 29.3162 8.4142 29.3799 8.37935 29.4523C8.34451 29.5247 8.32641 29.604 8.32638 29.6843V30.0096C8.32643 30.1426 8.37593 30.2708 8.46526 30.3693L9.1466 31.119C9.1968 31.1741 9.25791 31.2181 9.32605 31.2482C9.39419 31.2783 9.46786 31.2939 9.54235 31.2939H10.267C10.4088 31.2939 10.5448 31.2376 10.645 31.1373L11.0726 30.7097C11.1223 30.6601 11.1617 30.6012 11.1886 30.5363C11.2155 30.4714 11.2293 30.4019 11.2293 30.3317L11.2303 25.0585L11.5681 24.6016C11.6363 24.5096 11.6731 24.3982 11.6731 24.2837V23.798C11.9686 23.707 12.2351 23.5402 12.446 23.3141C12.9004 22.8204 13.2478 22.2381 13.4665 21.6037C13.577 21.3295 13.6483 21.0411 13.6782 20.747L13.69 20.6368C13.7731 20.1698 13.6674 19.6888 13.396 19.2997C13.2892 19.1636 13.1716 19.0363 13.0444 18.9191C12.9987 18.8753 12.9541 18.8335 12.9113 18.787C12.8204 18.6878 12.7084 18.5871 12.5745 18.4675L12.3761 18.2889C12.251 18.1767 12.1102 18.0832 11.9583 18.0113C11.9677 17.8909 11.9743 17.7699 11.9743 17.6483C11.9738 17.2717 11.926 16.8967 11.8321 16.5319C12.8004 16.0889 13.7448 15.5954 14.6614 15.0535C15.1738 14.7963 15.7045 14.5773 16.2491 14.3982C18.3818 13.7134 20.3769 12.6572 22.1422 11.2783C22.5642 11.624 23.0777 11.8393 23.62 11.8982C24.1623 11.957 24.71 11.8568 25.1963 11.6097L27.302 10.554C27.3647 10.5225 27.4207 10.479 27.4667 10.426C27.5126 10.3729 27.5476 10.3113 27.5698 10.2447C27.5919 10.178 27.6007 10.1077 27.5956 10.0377C27.5906 9.96766 27.5717 9.89932 27.5403 9.83658ZM9.50423 14.2228C9.51205 14.1946 9.52015 14.1664 9.52824 14.1382C9.98508 12.5369 10.4166 11.0244 12.2808 10.1895C12.3373 10.164 12.3986 10.1508 12.4606 10.1509C12.6072 10.1589 12.7477 10.2117 12.8632 10.3023C13.1777 10.5221 13.3985 10.8518 13.4819 11.2264C13.3871 11.4718 12.4854 12.0555 11.8889 12.4414C11.0351 12.9519 10.236 13.5489 9.50423 14.2228ZM10.266 24.564C10.1978 24.656 10.161 24.7675 10.161 24.882L10.16 30.1103L10.0456 30.2247H9.77886L9.46873 29.8832L9.55984 29.8112C9.62261 29.761 9.67329 29.6974 9.70813 29.625C9.74297 29.5526 9.76108 29.4733 9.76111 29.393V29.0029C9.76105 28.9202 9.7418 28.8385 9.70489 28.7644C9.66797 28.6903 9.61439 28.6258 9.54835 28.5759L9.45281 28.5038L9.49066 28.4824C9.57279 28.4358 9.64108 28.3682 9.68859 28.2866C9.7361 28.205 9.76112 28.1122 9.76111 28.0178V27.5996C9.76109 27.494 9.72984 27.3909 9.67131 27.3031C9.61278 27.2153 9.52958 27.1468 9.43219 27.1062L9.31497 27.0571V26.9365L9.61936 26.7647C9.7018 26.7181 9.77039 26.6504 9.81813 26.5686C9.86587 26.4867 9.89106 26.3937 9.89111 26.299V25.8714C9.8911 25.786 9.87065 25.7019 9.83145 25.626C9.79225 25.5502 9.73546 25.4848 9.66583 25.4354L9.31758 25.1885L9.32072 24.8872C9.3216 24.7846 9.29306 24.6839 9.23849 24.5969L8.94376 24.1291V23.8916H10.6038V24.1072L10.266 24.564ZM12.3056 19.6923C12.3932 19.7714 12.474 19.8577 12.5473 19.9502C12.6394 20.1193 12.6683 20.3157 12.629 20.5042L12.6139 20.6425C12.5909 20.8538 12.5374 21.0606 12.4551 21.2565C12.2839 21.7521 12.0121 22.2069 11.6569 22.5926C11.5906 22.6649 11.5101 22.7226 11.4203 22.7622C11.3306 22.8017 11.2336 22.8222 11.1355 22.8223H8.34098C8.24287 22.8222 8.14584 22.8018 8.05606 22.7622C7.96627 22.7227 7.88568 22.6649 7.8194 22.5926C7.46374 22.207 7.19184 21.7519 7.02085 21.256C6.93854 21.0603 6.88507 20.8536 6.86213 20.6425L6.847 20.5042C6.80755 20.3157 6.83642 20.1194 6.92844 19.9502C7.00188 19.8577 7.08282 19.7715 7.17044 19.6923C7.23335 19.6323 7.29366 19.5738 7.35161 19.5106C7.42157 19.4349 7.50928 19.3582 7.6124 19.2663L7.75408 19.1387C7.82151 19.3268 7.90503 19.5088 8.0037 19.6827C7.9202 19.7276 7.85027 19.794 7.80123 19.8752C7.75219 19.9563 7.72583 20.0491 7.7249 20.1439C7.72526 20.4329 7.84025 20.7099 8.04463 20.9142C8.24901 21.1185 8.52608 21.2333 8.81505 21.2336H10.5946C10.8839 21.2332 11.1612 21.118 11.3655 20.9133C11.5699 20.7086 11.6846 20.4311 11.6845 20.1418C11.6832 20.0717 11.668 20.0025 11.6399 19.9382C11.6118 19.8739 11.5713 19.8157 11.5207 19.7671C11.4701 19.7185 11.4104 19.6803 11.345 19.6547C11.2797 19.6292 11.2099 19.6167 11.1397 19.6182C10.9956 19.6203 10.8581 19.6785 10.7563 19.7805C10.6545 19.8825 10.5965 20.0202 10.5947 20.1643L10.2439 20.1603C10.2144 20.0484 10.1488 19.9493 10.0574 19.8783C9.96593 19.8073 9.85366 19.7683 9.73789 19.7675C9.39733 19.7675 9.0337 19.4345 8.80442 18.8872H11.1528C11.3365 18.8846 11.5143 18.9515 11.6506 19.0747L11.8636 19.2663C11.9668 19.3582 12.0545 19.4349 12.1242 19.5106C12.1823 19.5738 12.2427 19.6323 12.3056 19.6923ZM10.905 17.6483C10.905 17.706 10.8928 17.7607 10.89 17.818H8.58135C8.57867 17.7608 8.57097 17.7072 8.57097 17.6483C8.57053 17.3432 8.61155 17.0396 8.69291 16.7456C8.73299 16.8433 8.79312 16.9315 8.86943 17.0046C8.94573 17.0776 9.0365 17.1338 9.13588 17.1695C9.25464 17.2099 9.3796 17.229 9.50501 17.2259C9.95783 17.1987 10.4036 17.1007 10.826 16.9354C10.877 17.1697 10.9035 17.4086 10.905 17.6483ZM15.8812 13.3942C15.2749 13.5921 14.6856 13.8386 14.1191 14.1314C11.9161 15.4278 10.2276 16.0966 9.64598 16.1629C9.58022 15.2085 11.2379 14.1361 12.4698 13.3389C13.6424 12.5802 14.4898 12.032 14.5423 11.3382C14.525 10.9589 14.4199 10.5889 14.2351 10.2573C14.0504 9.92565 13.7911 9.64151 13.4777 9.42726C13.2495 9.24842 12.9775 9.13419 12.69 9.09654C12.4026 9.05888 12.1103 9.09917 11.8438 9.2132C9.52485 10.2517 8.98027 12.1605 8.49996 13.8448C8.38353 14.2531 8.27337 14.6389 8.14154 15.0054C8.12116 15.0669 8.0811 15.1199 8.02754 15.1564C7.97398 15.1928 7.90992 15.2106 7.84525 15.207C7.80022 15.2054 7.756 15.1946 7.71534 15.1752C7.67469 15.1558 7.63848 15.1282 7.60899 15.0942C7.58168 15.0638 7.56097 15.028 7.54816 14.9892C7.53536 14.9504 7.53074 14.9093 7.53459 14.8686C7.60874 14.1737 7.69383 13.3472 7.77868 12.5207L7.92069 11.1455C8.11621 9.26491 10.1801 6.79432 12.0148 5.29589C12.2084 5.17083 12.4401 5.11848 12.6687 5.14813C14.5144 5.23661 16.3517 5.45292 18.1675 5.7955C18.554 5.86612 18.9526 5.82827 19.3189 5.68615C19.3487 5.79727 19.3852 5.90649 19.4281 6.01322L21.3137 10.225C21.3518 10.3102 21.4053 10.384 21.4507 10.464C19.7827 11.7634 17.8968 12.7556 15.8812 13.3942Z" fill="#19A1DB"/>
</svg>
